G04 #@! TF.GenerationSoftware,KiCad,Pcbnew,(5.1.2)-1*
G04 #@! TF.CreationDate,2019-09-27T08:17:10+00:00*
G04 #@! TF.ProjectId,lilikitPCB,6c696c69-6b69-4745-9043-422e6b696361,V01*
G04 #@! TF.SameCoordinates,Original*
G04 #@! TF.FileFunction,Copper,L2,Bot*
G04 #@! TF.FilePolarity,Positive*
%FSLAX46Y46*%
G04 Gerber Fmt 4.6, Leading zero omitted, Abs format (unit mm)*
G04 Created by KiCad (PCBNEW (5.1.2)-1) date 2019-09-27 08:17:10*
%MOMM*%
%LPD*%
G04 APERTURE LIST*
%ADD10C,1.998980*%
%ADD11R,1.998980X1.998980*%
%ADD12C,0.800000*%
%ADD13C,0.250000*%
%ADD14C,0.254000*%
G04 APERTURE END LIST*
D10*
X83820000Y-91440000D03*
D11*
X83820000Y-87630000D03*
D10*
X100330000Y-107950000D03*
D11*
X104140000Y-107950000D03*
X83820000Y-97790000D03*
D10*
X83820000Y-101600000D03*
D11*
X114300000Y-96520000D03*
D10*
X114300000Y-92710000D03*
D12*
X93980000Y-100330000D03*
X93980000Y-91440000D03*
X90170000Y-88900000D03*
X93980000Y-82550000D03*
X100330000Y-85090000D03*
X100330000Y-91440000D03*
X97790000Y-92710000D03*
X98272500Y-93980000D03*
X104140000Y-92710000D03*
X96520000Y-90170000D03*
X101600000Y-90170000D03*
X86360000Y-100330000D03*
X86360000Y-88900000D03*
X90170000Y-99060000D03*
X90170000Y-91440000D03*
X90170000Y-91440000D03*
X92710000Y-91440000D03*
X96520000Y-93980000D03*
X92429847Y-88619847D03*
X99060000Y-102870000D03*
X96520000Y-101600000D03*
X98120000Y-99060000D03*
X107950000Y-100330000D03*
X104140000Y-96520000D03*
X102870000Y-99334991D03*
X102870000Y-99334991D03*
D13*
X93980000Y-100330000D02*
X95250000Y-99060000D01*
X95250000Y-99060000D02*
X95250000Y-92710000D01*
X95250000Y-92710000D02*
X93980000Y-91440000D01*
X93980000Y-91440000D02*
X91440000Y-88900000D01*
X91440000Y-88900000D02*
X90170000Y-88900000D01*
X93980000Y-82550000D02*
X99060000Y-82550000D01*
X99060000Y-82550000D02*
X100330000Y-83820000D01*
X100330000Y-83820000D02*
X100330000Y-85090000D01*
X100330000Y-91440000D02*
X99060000Y-92710000D01*
X99060000Y-92710000D02*
X97790000Y-92710000D01*
X98272500Y-93980000D02*
X100330000Y-93980000D01*
X100330000Y-93980000D02*
X101600000Y-92710000D01*
X101600000Y-92710000D02*
X104140000Y-92710000D01*
X96520000Y-90170000D02*
X101600000Y-90170000D01*
X86360000Y-100330000D02*
X86360000Y-91440000D01*
X86360000Y-91440000D02*
X86360000Y-88900000D01*
X90170000Y-99060000D02*
X90170000Y-91440000D01*
X92710000Y-91440000D02*
X90170000Y-91440000D01*
X96520000Y-93980000D02*
X96520000Y-92710000D01*
X96520000Y-92710000D02*
X92429847Y-88619847D01*
X99060000Y-102870000D02*
X97790000Y-101600000D01*
X97790000Y-101600000D02*
X96520000Y-101600000D01*
X100516401Y-98609991D02*
X99510009Y-98609991D01*
X102686419Y-100780009D02*
X100516401Y-98609991D01*
X107950000Y-100330000D02*
X107499991Y-100780009D01*
X107499991Y-100780009D02*
X102686419Y-100780009D01*
X99060000Y-99060000D02*
X98120000Y-99060000D01*
X99510009Y-98609991D02*
X99060000Y-99060000D01*
X106866401Y-99510009D02*
X103320009Y-99510009D01*
X107130009Y-99246401D02*
X106866401Y-99510009D01*
X107130009Y-98873599D02*
X107130009Y-99246401D01*
X104140000Y-96520000D02*
X104776410Y-96520000D01*
X104776410Y-96520000D02*
X107130009Y-98873599D01*
X103320009Y-99510009D02*
X103144991Y-99334991D01*
X103144991Y-99334991D02*
X102870000Y-99334991D01*
D14*
G36*
X116957869Y-81954722D02*
G01*
X117071246Y-81988953D01*
X117175819Y-82044555D01*
X117267596Y-82119407D01*
X117343091Y-82210664D01*
X117399419Y-82314844D01*
X117434440Y-82427976D01*
X117450000Y-82576022D01*
X117450001Y-110457711D01*
X117435278Y-110607869D01*
X117401047Y-110721246D01*
X117345446Y-110825817D01*
X117270594Y-110917595D01*
X117179335Y-110993091D01*
X117075160Y-111049419D01*
X116962024Y-111084440D01*
X116813979Y-111100000D01*
X81312279Y-111100000D01*
X81162131Y-111085278D01*
X81048754Y-111051047D01*
X80944183Y-110995446D01*
X80852405Y-110920594D01*
X80776909Y-110829335D01*
X80720581Y-110725160D01*
X80685560Y-110612024D01*
X80670000Y-110463979D01*
X80670000Y-107789017D01*
X98695510Y-107789017D01*
X98695510Y-108110983D01*
X98758322Y-108426763D01*
X98881533Y-108724222D01*
X99060408Y-108991927D01*
X99288073Y-109219592D01*
X99555778Y-109398467D01*
X99853237Y-109521678D01*
X100169017Y-109584490D01*
X100490983Y-109584490D01*
X100806763Y-109521678D01*
X101104222Y-109398467D01*
X101371927Y-109219592D01*
X101599592Y-108991927D01*
X101778467Y-108724222D01*
X101901678Y-108426763D01*
X101964490Y-108110983D01*
X101964490Y-107789017D01*
X101901678Y-107473237D01*
X101778467Y-107175778D01*
X101627948Y-106950510D01*
X102502438Y-106950510D01*
X102502438Y-108949490D01*
X102514698Y-109073972D01*
X102551008Y-109193670D01*
X102609973Y-109303984D01*
X102689325Y-109400675D01*
X102786016Y-109480027D01*
X102896330Y-109538992D01*
X103016028Y-109575302D01*
X103140510Y-109587562D01*
X105139490Y-109587562D01*
X105263972Y-109575302D01*
X105383670Y-109538992D01*
X105493984Y-109480027D01*
X105590675Y-109400675D01*
X105670027Y-109303984D01*
X105728992Y-109193670D01*
X105765302Y-109073972D01*
X105777562Y-108949490D01*
X105777562Y-106950510D01*
X105765302Y-106826028D01*
X105728992Y-106706330D01*
X105670027Y-106596016D01*
X105590675Y-106499325D01*
X105493984Y-106419973D01*
X105383670Y-106361008D01*
X105263972Y-106324698D01*
X105139490Y-106312438D01*
X103140510Y-106312438D01*
X103016028Y-106324698D01*
X102896330Y-106361008D01*
X102786016Y-106419973D01*
X102689325Y-106499325D01*
X102609973Y-106596016D01*
X102551008Y-106706330D01*
X102514698Y-106826028D01*
X102502438Y-106950510D01*
X101627948Y-106950510D01*
X101599592Y-106908073D01*
X101371927Y-106680408D01*
X101104222Y-106501533D01*
X100806763Y-106378322D01*
X100490983Y-106315510D01*
X100169017Y-106315510D01*
X99853237Y-106378322D01*
X99555778Y-106501533D01*
X99288073Y-106680408D01*
X99060408Y-106908073D01*
X98881533Y-107175778D01*
X98758322Y-107473237D01*
X98695510Y-107789017D01*
X80670000Y-107789017D01*
X80670000Y-101439017D01*
X82185510Y-101439017D01*
X82185510Y-101760983D01*
X82248322Y-102076763D01*
X82371533Y-102374222D01*
X82550408Y-102641927D01*
X82778073Y-102869592D01*
X83045778Y-103048467D01*
X83343237Y-103171678D01*
X83659017Y-103234490D01*
X83980983Y-103234490D01*
X84296763Y-103171678D01*
X84594222Y-103048467D01*
X84861927Y-102869592D01*
X85089592Y-102641927D01*
X85268467Y-102374222D01*
X85391678Y-102076763D01*
X85454490Y-101760983D01*
X85454490Y-101498061D01*
X95485000Y-101498061D01*
X95485000Y-101701939D01*
X95524774Y-101901898D01*
X95602795Y-102090256D01*
X95716063Y-102259774D01*
X95860226Y-102403937D01*
X96029744Y-102517205D01*
X96218102Y-102595226D01*
X96418061Y-102635000D01*
X96621939Y-102635000D01*
X96821898Y-102595226D01*
X97010256Y-102517205D01*
X97179774Y-102403937D01*
X97223711Y-102360000D01*
X97475199Y-102360000D01*
X98025000Y-102909802D01*
X98025000Y-102971939D01*
X98064774Y-103171898D01*
X98142795Y-103360256D01*
X98256063Y-103529774D01*
X98400226Y-103673937D01*
X98569744Y-103787205D01*
X98758102Y-103865226D01*
X98958061Y-103905000D01*
X99161939Y-103905000D01*
X99361898Y-103865226D01*
X99550256Y-103787205D01*
X99719774Y-103673937D01*
X99863937Y-103529774D01*
X99977205Y-103360256D01*
X100055226Y-103171898D01*
X100095000Y-102971939D01*
X100095000Y-102768061D01*
X100055226Y-102568102D01*
X99977205Y-102379744D01*
X99863937Y-102210226D01*
X99719774Y-102066063D01*
X99550256Y-101952795D01*
X99361898Y-101874774D01*
X99161939Y-101835000D01*
X99099802Y-101835000D01*
X98353804Y-101089003D01*
X98330001Y-101059999D01*
X98214276Y-100965026D01*
X98082247Y-100894454D01*
X97938986Y-100850997D01*
X97827333Y-100840000D01*
X97827322Y-100840000D01*
X97790000Y-100836324D01*
X97752678Y-100840000D01*
X97223711Y-100840000D01*
X97179774Y-100796063D01*
X97010256Y-100682795D01*
X96821898Y-100604774D01*
X96621939Y-100565000D01*
X96418061Y-100565000D01*
X96218102Y-100604774D01*
X96029744Y-100682795D01*
X95860226Y-100796063D01*
X95716063Y-100940226D01*
X95602795Y-101109744D01*
X95524774Y-101298102D01*
X95485000Y-101498061D01*
X85454490Y-101498061D01*
X85454490Y-101439017D01*
X85391678Y-101123237D01*
X85268467Y-100825778D01*
X85089592Y-100558073D01*
X84861927Y-100330408D01*
X84594222Y-100151533D01*
X84296763Y-100028322D01*
X83980983Y-99965510D01*
X83659017Y-99965510D01*
X83343237Y-100028322D01*
X83045778Y-100151533D01*
X82778073Y-100330408D01*
X82550408Y-100558073D01*
X82371533Y-100825778D01*
X82248322Y-101123237D01*
X82185510Y-101439017D01*
X80670000Y-101439017D01*
X80670000Y-96790510D01*
X82182438Y-96790510D01*
X82182438Y-98789490D01*
X82194698Y-98913972D01*
X82231008Y-99033670D01*
X82289973Y-99143984D01*
X82369325Y-99240675D01*
X82466016Y-99320027D01*
X82576330Y-99378992D01*
X82696028Y-99415302D01*
X82820510Y-99427562D01*
X84819490Y-99427562D01*
X84943972Y-99415302D01*
X85063670Y-99378992D01*
X85173984Y-99320027D01*
X85270675Y-99240675D01*
X85350027Y-99143984D01*
X85408992Y-99033670D01*
X85445302Y-98913972D01*
X85457562Y-98789490D01*
X85457562Y-96790510D01*
X85445302Y-96666028D01*
X85408992Y-96546330D01*
X85350027Y-96436016D01*
X85270675Y-96339325D01*
X85173984Y-96259973D01*
X85063670Y-96201008D01*
X84943972Y-96164698D01*
X84819490Y-96152438D01*
X82820510Y-96152438D01*
X82696028Y-96164698D01*
X82576330Y-96201008D01*
X82466016Y-96259973D01*
X82369325Y-96339325D01*
X82289973Y-96436016D01*
X82231008Y-96546330D01*
X82194698Y-96666028D01*
X82182438Y-96790510D01*
X80670000Y-96790510D01*
X80670000Y-92575050D01*
X82864555Y-92575050D01*
X82960258Y-92839399D01*
X83249787Y-92980238D01*
X83561229Y-93061885D01*
X83882615Y-93081205D01*
X84201595Y-93037454D01*
X84505911Y-92932314D01*
X84679742Y-92839399D01*
X84775445Y-92575050D01*
X83820000Y-91619605D01*
X82864555Y-92575050D01*
X80670000Y-92575050D01*
X80670000Y-91502615D01*
X82178795Y-91502615D01*
X82222546Y-91821595D01*
X82327686Y-92125911D01*
X82420601Y-92299742D01*
X82684950Y-92395445D01*
X83640395Y-91440000D01*
X83999605Y-91440000D01*
X84955050Y-92395445D01*
X85219399Y-92299742D01*
X85360238Y-92010213D01*
X85441885Y-91698771D01*
X85461205Y-91377385D01*
X85417454Y-91058405D01*
X85312314Y-90754089D01*
X85219399Y-90580258D01*
X84955050Y-90484555D01*
X83999605Y-91440000D01*
X83640395Y-91440000D01*
X82684950Y-90484555D01*
X82420601Y-90580258D01*
X82279762Y-90869787D01*
X82198115Y-91181229D01*
X82178795Y-91502615D01*
X80670000Y-91502615D01*
X80670000Y-90304950D01*
X82864555Y-90304950D01*
X83820000Y-91260395D01*
X84775445Y-90304950D01*
X84679742Y-90040601D01*
X84390213Y-89899762D01*
X84078771Y-89818115D01*
X83757385Y-89798795D01*
X83438405Y-89842546D01*
X83134089Y-89947686D01*
X82960258Y-90040601D01*
X82864555Y-90304950D01*
X80670000Y-90304950D01*
X80670000Y-86630510D01*
X82182438Y-86630510D01*
X82182438Y-88629490D01*
X82194698Y-88753972D01*
X82231008Y-88873670D01*
X82289973Y-88983984D01*
X82369325Y-89080675D01*
X82466016Y-89160027D01*
X82576330Y-89218992D01*
X82696028Y-89255302D01*
X82820510Y-89267562D01*
X84819490Y-89267562D01*
X84943972Y-89255302D01*
X85063670Y-89218992D01*
X85173984Y-89160027D01*
X85270675Y-89080675D01*
X85327008Y-89012033D01*
X85364774Y-89201898D01*
X85442795Y-89390256D01*
X85556063Y-89559774D01*
X85600001Y-89603712D01*
X85600000Y-91477332D01*
X85600001Y-91477342D01*
X85600000Y-99626289D01*
X85556063Y-99670226D01*
X85442795Y-99839744D01*
X85364774Y-100028102D01*
X85325000Y-100228061D01*
X85325000Y-100431939D01*
X85364774Y-100631898D01*
X85442795Y-100820256D01*
X85556063Y-100989774D01*
X85700226Y-101133937D01*
X85869744Y-101247205D01*
X86058102Y-101325226D01*
X86258061Y-101365000D01*
X86461939Y-101365000D01*
X86661898Y-101325226D01*
X86850256Y-101247205D01*
X87019774Y-101133937D01*
X87163937Y-100989774D01*
X87277205Y-100820256D01*
X87355226Y-100631898D01*
X87395000Y-100431939D01*
X87395000Y-100228061D01*
X87355226Y-100028102D01*
X87277205Y-99839744D01*
X87163937Y-99670226D01*
X87120000Y-99626289D01*
X87120000Y-89603711D01*
X87163937Y-89559774D01*
X87277205Y-89390256D01*
X87355226Y-89201898D01*
X87395000Y-89001939D01*
X87395000Y-88798061D01*
X89135000Y-88798061D01*
X89135000Y-89001939D01*
X89174774Y-89201898D01*
X89252795Y-89390256D01*
X89366063Y-89559774D01*
X89510226Y-89703937D01*
X89679744Y-89817205D01*
X89868102Y-89895226D01*
X90068061Y-89935000D01*
X90271939Y-89935000D01*
X90471898Y-89895226D01*
X90660256Y-89817205D01*
X90829774Y-89703937D01*
X90873711Y-89660000D01*
X91125199Y-89660000D01*
X92080819Y-90615621D01*
X92050226Y-90636063D01*
X92006289Y-90680000D01*
X90873711Y-90680000D01*
X90829774Y-90636063D01*
X90660256Y-90522795D01*
X90471898Y-90444774D01*
X90271939Y-90405000D01*
X90068061Y-90405000D01*
X89868102Y-90444774D01*
X89679744Y-90522795D01*
X89510226Y-90636063D01*
X89366063Y-90780226D01*
X89252795Y-90949744D01*
X89174774Y-91138102D01*
X89135000Y-91338061D01*
X89135000Y-91541939D01*
X89174774Y-91741898D01*
X89252795Y-91930256D01*
X89366063Y-92099774D01*
X89410001Y-92143712D01*
X89410000Y-98356289D01*
X89366063Y-98400226D01*
X89252795Y-98569744D01*
X89174774Y-98758102D01*
X89135000Y-98958061D01*
X89135000Y-99161939D01*
X89174774Y-99361898D01*
X89252795Y-99550256D01*
X89366063Y-99719774D01*
X89510226Y-99863937D01*
X89679744Y-99977205D01*
X89868102Y-100055226D01*
X90068061Y-100095000D01*
X90271939Y-100095000D01*
X90471898Y-100055226D01*
X90660256Y-99977205D01*
X90829774Y-99863937D01*
X90973937Y-99719774D01*
X91087205Y-99550256D01*
X91165226Y-99361898D01*
X91205000Y-99161939D01*
X91205000Y-98958061D01*
X91165226Y-98758102D01*
X91087205Y-98569744D01*
X90973937Y-98400226D01*
X90930000Y-98356289D01*
X90930000Y-92200000D01*
X92006289Y-92200000D01*
X92050226Y-92243937D01*
X92219744Y-92357205D01*
X92408102Y-92435226D01*
X92608061Y-92475000D01*
X92811939Y-92475000D01*
X93011898Y-92435226D01*
X93200256Y-92357205D01*
X93345000Y-92260490D01*
X93489744Y-92357205D01*
X93678102Y-92435226D01*
X93878061Y-92475000D01*
X93940199Y-92475000D01*
X94490001Y-93024803D01*
X94490000Y-98745198D01*
X93940199Y-99295000D01*
X93878061Y-99295000D01*
X93678102Y-99334774D01*
X93489744Y-99412795D01*
X93320226Y-99526063D01*
X93176063Y-99670226D01*
X93062795Y-99839744D01*
X92984774Y-100028102D01*
X92945000Y-100228061D01*
X92945000Y-100431939D01*
X92984774Y-100631898D01*
X93062795Y-100820256D01*
X93176063Y-100989774D01*
X93320226Y-101133937D01*
X93489744Y-101247205D01*
X93678102Y-101325226D01*
X93878061Y-101365000D01*
X94081939Y-101365000D01*
X94281898Y-101325226D01*
X94470256Y-101247205D01*
X94639774Y-101133937D01*
X94783937Y-100989774D01*
X94897205Y-100820256D01*
X94975226Y-100631898D01*
X95015000Y-100431939D01*
X95015000Y-100369801D01*
X95761004Y-99623798D01*
X95790001Y-99600001D01*
X95884974Y-99484276D01*
X95955546Y-99352247D01*
X95999003Y-99208986D01*
X96010000Y-99097333D01*
X96010000Y-99097324D01*
X96013676Y-99060001D01*
X96010000Y-99022678D01*
X96010000Y-98958061D01*
X97085000Y-98958061D01*
X97085000Y-99161939D01*
X97124774Y-99361898D01*
X97202795Y-99550256D01*
X97316063Y-99719774D01*
X97460226Y-99863937D01*
X97629744Y-99977205D01*
X97818102Y-100055226D01*
X98018061Y-100095000D01*
X98221939Y-100095000D01*
X98421898Y-100055226D01*
X98610256Y-99977205D01*
X98779774Y-99863937D01*
X98823711Y-99820000D01*
X99022678Y-99820000D01*
X99060000Y-99823676D01*
X99097322Y-99820000D01*
X99097333Y-99820000D01*
X99208986Y-99809003D01*
X99352247Y-99765546D01*
X99484276Y-99694974D01*
X99600001Y-99600001D01*
X99623804Y-99570997D01*
X99824810Y-99369991D01*
X100201600Y-99369991D01*
X102122620Y-101291012D01*
X102146418Y-101320010D01*
X102175416Y-101343808D01*
X102262142Y-101414983D01*
X102329551Y-101451014D01*
X102394172Y-101485555D01*
X102537433Y-101529012D01*
X102649086Y-101540009D01*
X102649096Y-101540009D01*
X102686419Y-101543685D01*
X102723742Y-101540009D01*
X107462669Y-101540009D01*
X107499991Y-101543685D01*
X107537313Y-101540009D01*
X107537324Y-101540009D01*
X107648977Y-101529012D01*
X107792238Y-101485555D01*
X107924267Y-101414983D01*
X107985171Y-101365000D01*
X108051939Y-101365000D01*
X108251898Y-101325226D01*
X108440256Y-101247205D01*
X108609774Y-101133937D01*
X108753937Y-100989774D01*
X108867205Y-100820256D01*
X108945226Y-100631898D01*
X108985000Y-100431939D01*
X108985000Y-100228061D01*
X108945226Y-100028102D01*
X108867205Y-99839744D01*
X108753937Y-99670226D01*
X108609774Y-99526063D01*
X108440256Y-99412795D01*
X108251898Y-99334774D01*
X108051939Y-99295000D01*
X107888899Y-99295000D01*
X107890009Y-99283733D01*
X107890009Y-99283724D01*
X107893685Y-99246402D01*
X107890009Y-99209079D01*
X107890009Y-98910932D01*
X107893686Y-98873599D01*
X107882397Y-98758976D01*
X107879012Y-98724613D01*
X107835555Y-98581352D01*
X107764983Y-98449323D01*
X107670010Y-98333598D01*
X107641013Y-98309801D01*
X105340214Y-96009003D01*
X105316411Y-95979999D01*
X105200686Y-95885026D01*
X105068657Y-95814454D01*
X104925396Y-95770997D01*
X104846985Y-95763274D01*
X104799774Y-95716063D01*
X104630256Y-95602795D01*
X104441898Y-95524774D01*
X104420462Y-95520510D01*
X112662438Y-95520510D01*
X112662438Y-97519490D01*
X112674698Y-97643972D01*
X112711008Y-97763670D01*
X112769973Y-97873984D01*
X112849325Y-97970675D01*
X112946016Y-98050027D01*
X113056330Y-98108992D01*
X113176028Y-98145302D01*
X113300510Y-98157562D01*
X115299490Y-98157562D01*
X115423972Y-98145302D01*
X115543670Y-98108992D01*
X115653984Y-98050027D01*
X115750675Y-97970675D01*
X115830027Y-97873984D01*
X115888992Y-97763670D01*
X115925302Y-97643972D01*
X115937562Y-97519490D01*
X115937562Y-95520510D01*
X115925302Y-95396028D01*
X115888992Y-95276330D01*
X115830027Y-95166016D01*
X115750675Y-95069325D01*
X115653984Y-94989973D01*
X115543670Y-94931008D01*
X115423972Y-94894698D01*
X115299490Y-94882438D01*
X113300510Y-94882438D01*
X113176028Y-94894698D01*
X113056330Y-94931008D01*
X112946016Y-94989973D01*
X112849325Y-95069325D01*
X112769973Y-95166016D01*
X112711008Y-95276330D01*
X112674698Y-95396028D01*
X112662438Y-95520510D01*
X104420462Y-95520510D01*
X104241939Y-95485000D01*
X104038061Y-95485000D01*
X103838102Y-95524774D01*
X103649744Y-95602795D01*
X103480226Y-95716063D01*
X103336063Y-95860226D01*
X103222795Y-96029744D01*
X103144774Y-96218102D01*
X103105000Y-96418061D01*
X103105000Y-96621939D01*
X103144774Y-96821898D01*
X103222795Y-97010256D01*
X103336063Y-97179774D01*
X103480226Y-97323937D01*
X103649744Y-97437205D01*
X103838102Y-97515226D01*
X104038061Y-97555000D01*
X104241939Y-97555000D01*
X104441898Y-97515226D01*
X104622165Y-97440556D01*
X105931617Y-98750009D01*
X103723911Y-98750009D01*
X103673937Y-98675217D01*
X103529774Y-98531054D01*
X103360256Y-98417786D01*
X103171898Y-98339765D01*
X102971939Y-98299991D01*
X102768061Y-98299991D01*
X102568102Y-98339765D01*
X102379744Y-98417786D01*
X102210226Y-98531054D01*
X102066063Y-98675217D01*
X101952795Y-98844735D01*
X101915642Y-98934430D01*
X101080205Y-98098994D01*
X101056402Y-98069990D01*
X100940677Y-97975017D01*
X100808648Y-97904445D01*
X100665387Y-97860988D01*
X100553734Y-97849991D01*
X100553723Y-97849991D01*
X100516401Y-97846315D01*
X100479079Y-97849991D01*
X99547332Y-97849991D01*
X99510009Y-97846315D01*
X99472686Y-97849991D01*
X99472676Y-97849991D01*
X99361023Y-97860988D01*
X99217762Y-97904445D01*
X99085733Y-97975017D01*
X98970008Y-98069990D01*
X98946205Y-98098994D01*
X98784455Y-98260744D01*
X98779774Y-98256063D01*
X98610256Y-98142795D01*
X98421898Y-98064774D01*
X98221939Y-98025000D01*
X98018061Y-98025000D01*
X97818102Y-98064774D01*
X97629744Y-98142795D01*
X97460226Y-98256063D01*
X97316063Y-98400226D01*
X97202795Y-98569744D01*
X97124774Y-98758102D01*
X97085000Y-98958061D01*
X96010000Y-98958061D01*
X96010000Y-94884013D01*
X96029744Y-94897205D01*
X96218102Y-94975226D01*
X96418061Y-95015000D01*
X96621939Y-95015000D01*
X96821898Y-94975226D01*
X97010256Y-94897205D01*
X97179774Y-94783937D01*
X97323937Y-94639774D01*
X97396250Y-94531550D01*
X97468563Y-94639774D01*
X97612726Y-94783937D01*
X97782244Y-94897205D01*
X97970602Y-94975226D01*
X98170561Y-95015000D01*
X98374439Y-95015000D01*
X98574398Y-94975226D01*
X98762756Y-94897205D01*
X98932274Y-94783937D01*
X98976211Y-94740000D01*
X100292678Y-94740000D01*
X100330000Y-94743676D01*
X100367322Y-94740000D01*
X100367333Y-94740000D01*
X100478986Y-94729003D01*
X100622247Y-94685546D01*
X100754276Y-94614974D01*
X100870001Y-94520001D01*
X100893804Y-94490997D01*
X101914802Y-93470000D01*
X103436289Y-93470000D01*
X103480226Y-93513937D01*
X103649744Y-93627205D01*
X103838102Y-93705226D01*
X104038061Y-93745000D01*
X104241939Y-93745000D01*
X104441898Y-93705226D01*
X104630256Y-93627205D01*
X104799774Y-93513937D01*
X104943937Y-93369774D01*
X105057205Y-93200256D01*
X105135226Y-93011898D01*
X105175000Y-92811939D01*
X105175000Y-92608061D01*
X105163256Y-92549017D01*
X112665510Y-92549017D01*
X112665510Y-92870983D01*
X112728322Y-93186763D01*
X112851533Y-93484222D01*
X113030408Y-93751927D01*
X113258073Y-93979592D01*
X113525778Y-94158467D01*
X113823237Y-94281678D01*
X114139017Y-94344490D01*
X114460983Y-94344490D01*
X114776763Y-94281678D01*
X115074222Y-94158467D01*
X115341927Y-93979592D01*
X115569592Y-93751927D01*
X115748467Y-93484222D01*
X115871678Y-93186763D01*
X115934490Y-92870983D01*
X115934490Y-92549017D01*
X115871678Y-92233237D01*
X115748467Y-91935778D01*
X115569592Y-91668073D01*
X115341927Y-91440408D01*
X115074222Y-91261533D01*
X114776763Y-91138322D01*
X114460983Y-91075510D01*
X114139017Y-91075510D01*
X113823237Y-91138322D01*
X113525778Y-91261533D01*
X113258073Y-91440408D01*
X113030408Y-91668073D01*
X112851533Y-91935778D01*
X112728322Y-92233237D01*
X112665510Y-92549017D01*
X105163256Y-92549017D01*
X105135226Y-92408102D01*
X105057205Y-92219744D01*
X104943937Y-92050226D01*
X104799774Y-91906063D01*
X104630256Y-91792795D01*
X104441898Y-91714774D01*
X104241939Y-91675000D01*
X104038061Y-91675000D01*
X103838102Y-91714774D01*
X103649744Y-91792795D01*
X103480226Y-91906063D01*
X103436289Y-91950000D01*
X101637322Y-91950000D01*
X101599999Y-91946324D01*
X101562676Y-91950000D01*
X101562667Y-91950000D01*
X101451014Y-91960997D01*
X101307753Y-92004454D01*
X101175724Y-92075026D01*
X101080705Y-92153006D01*
X101133937Y-92099774D01*
X101247205Y-91930256D01*
X101325226Y-91741898D01*
X101365000Y-91541939D01*
X101365000Y-91338061D01*
X101331961Y-91171961D01*
X101498061Y-91205000D01*
X101701939Y-91205000D01*
X101901898Y-91165226D01*
X102090256Y-91087205D01*
X102259774Y-90973937D01*
X102403937Y-90829774D01*
X102517205Y-90660256D01*
X102595226Y-90471898D01*
X102635000Y-90271939D01*
X102635000Y-90068061D01*
X102595226Y-89868102D01*
X102517205Y-89679744D01*
X102403937Y-89510226D01*
X102259774Y-89366063D01*
X102090256Y-89252795D01*
X101901898Y-89174774D01*
X101701939Y-89135000D01*
X101498061Y-89135000D01*
X101298102Y-89174774D01*
X101109744Y-89252795D01*
X100940226Y-89366063D01*
X100896289Y-89410000D01*
X97223711Y-89410000D01*
X97179774Y-89366063D01*
X97010256Y-89252795D01*
X96821898Y-89174774D01*
X96621939Y-89135000D01*
X96418061Y-89135000D01*
X96218102Y-89174774D01*
X96029744Y-89252795D01*
X95860226Y-89366063D01*
X95716063Y-89510226D01*
X95602795Y-89679744D01*
X95524774Y-89868102D01*
X95485000Y-90068061D01*
X95485000Y-90271939D01*
X95524774Y-90471898D01*
X95602795Y-90660256D01*
X95716063Y-90829774D01*
X95860226Y-90973937D01*
X96029744Y-91087205D01*
X96218102Y-91165226D01*
X96418061Y-91205000D01*
X96621939Y-91205000D01*
X96821898Y-91165226D01*
X97010256Y-91087205D01*
X97179774Y-90973937D01*
X97223711Y-90930000D01*
X99425987Y-90930000D01*
X99412795Y-90949744D01*
X99334774Y-91138102D01*
X99295000Y-91338061D01*
X99295000Y-91400198D01*
X98745199Y-91950000D01*
X98493711Y-91950000D01*
X98449774Y-91906063D01*
X98280256Y-91792795D01*
X98091898Y-91714774D01*
X97891939Y-91675000D01*
X97688061Y-91675000D01*
X97488102Y-91714774D01*
X97299744Y-91792795D01*
X97130226Y-91906063D01*
X96986063Y-92050226D01*
X96965621Y-92080819D01*
X93464847Y-88580046D01*
X93464847Y-88517908D01*
X93425073Y-88317949D01*
X93347052Y-88129591D01*
X93233784Y-87960073D01*
X93089621Y-87815910D01*
X92920103Y-87702642D01*
X92731745Y-87624621D01*
X92531786Y-87584847D01*
X92327908Y-87584847D01*
X92127949Y-87624621D01*
X91939591Y-87702642D01*
X91770073Y-87815910D01*
X91625910Y-87960073D01*
X91512642Y-88129591D01*
X91507115Y-88142933D01*
X91477333Y-88140000D01*
X91477322Y-88140000D01*
X91440000Y-88136324D01*
X91402678Y-88140000D01*
X90873711Y-88140000D01*
X90829774Y-88096063D01*
X90660256Y-87982795D01*
X90471898Y-87904774D01*
X90271939Y-87865000D01*
X90068061Y-87865000D01*
X89868102Y-87904774D01*
X89679744Y-87982795D01*
X89510226Y-88096063D01*
X89366063Y-88240226D01*
X89252795Y-88409744D01*
X89174774Y-88598102D01*
X89135000Y-88798061D01*
X87395000Y-88798061D01*
X87355226Y-88598102D01*
X87277205Y-88409744D01*
X87163937Y-88240226D01*
X87019774Y-88096063D01*
X86850256Y-87982795D01*
X86661898Y-87904774D01*
X86461939Y-87865000D01*
X86258061Y-87865000D01*
X86058102Y-87904774D01*
X85869744Y-87982795D01*
X85700226Y-88096063D01*
X85556063Y-88240226D01*
X85457562Y-88387644D01*
X85457562Y-86630510D01*
X85445302Y-86506028D01*
X85408992Y-86386330D01*
X85350027Y-86276016D01*
X85270675Y-86179325D01*
X85173984Y-86099973D01*
X85063670Y-86041008D01*
X84943972Y-86004698D01*
X84819490Y-85992438D01*
X82820510Y-85992438D01*
X82696028Y-86004698D01*
X82576330Y-86041008D01*
X82466016Y-86099973D01*
X82369325Y-86179325D01*
X82289973Y-86276016D01*
X82231008Y-86386330D01*
X82194698Y-86506028D01*
X82182438Y-86630510D01*
X80670000Y-86630510D01*
X80670000Y-82582279D01*
X80684722Y-82432131D01*
X80718953Y-82318754D01*
X80774555Y-82214181D01*
X80849407Y-82122404D01*
X80940664Y-82046909D01*
X81044844Y-81990581D01*
X81157976Y-81955560D01*
X81306022Y-81940000D01*
X116807721Y-81940000D01*
X116957869Y-81954722D01*
X116957869Y-81954722D01*
G37*
X116957869Y-81954722D02*
X117071246Y-81988953D01*
X117175819Y-82044555D01*
X117267596Y-82119407D01*
X117343091Y-82210664D01*
X117399419Y-82314844D01*
X117434440Y-82427976D01*
X117450000Y-82576022D01*
X117450001Y-110457711D01*
X117435278Y-110607869D01*
X117401047Y-110721246D01*
X117345446Y-110825817D01*
X117270594Y-110917595D01*
X117179335Y-110993091D01*
X117075160Y-111049419D01*
X116962024Y-111084440D01*
X116813979Y-111100000D01*
X81312279Y-111100000D01*
X81162131Y-111085278D01*
X81048754Y-111051047D01*
X80944183Y-110995446D01*
X80852405Y-110920594D01*
X80776909Y-110829335D01*
X80720581Y-110725160D01*
X80685560Y-110612024D01*
X80670000Y-110463979D01*
X80670000Y-107789017D01*
X98695510Y-107789017D01*
X98695510Y-108110983D01*
X98758322Y-108426763D01*
X98881533Y-108724222D01*
X99060408Y-108991927D01*
X99288073Y-109219592D01*
X99555778Y-109398467D01*
X99853237Y-109521678D01*
X100169017Y-109584490D01*
X100490983Y-109584490D01*
X100806763Y-109521678D01*
X101104222Y-109398467D01*
X101371927Y-109219592D01*
X101599592Y-108991927D01*
X101778467Y-108724222D01*
X101901678Y-108426763D01*
X101964490Y-108110983D01*
X101964490Y-107789017D01*
X101901678Y-107473237D01*
X101778467Y-107175778D01*
X101627948Y-106950510D01*
X102502438Y-106950510D01*
X102502438Y-108949490D01*
X102514698Y-109073972D01*
X102551008Y-109193670D01*
X102609973Y-109303984D01*
X102689325Y-109400675D01*
X102786016Y-109480027D01*
X102896330Y-109538992D01*
X103016028Y-109575302D01*
X103140510Y-109587562D01*
X105139490Y-109587562D01*
X105263972Y-109575302D01*
X105383670Y-109538992D01*
X105493984Y-109480027D01*
X105590675Y-109400675D01*
X105670027Y-109303984D01*
X105728992Y-109193670D01*
X105765302Y-109073972D01*
X105777562Y-108949490D01*
X105777562Y-106950510D01*
X105765302Y-106826028D01*
X105728992Y-106706330D01*
X105670027Y-106596016D01*
X105590675Y-106499325D01*
X105493984Y-106419973D01*
X105383670Y-106361008D01*
X105263972Y-106324698D01*
X105139490Y-106312438D01*
X103140510Y-106312438D01*
X103016028Y-106324698D01*
X102896330Y-106361008D01*
X102786016Y-106419973D01*
X102689325Y-106499325D01*
X102609973Y-106596016D01*
X102551008Y-106706330D01*
X102514698Y-106826028D01*
X102502438Y-106950510D01*
X101627948Y-106950510D01*
X101599592Y-106908073D01*
X101371927Y-106680408D01*
X101104222Y-106501533D01*
X100806763Y-106378322D01*
X100490983Y-106315510D01*
X100169017Y-106315510D01*
X99853237Y-106378322D01*
X99555778Y-106501533D01*
X99288073Y-106680408D01*
X99060408Y-106908073D01*
X98881533Y-107175778D01*
X98758322Y-107473237D01*
X98695510Y-107789017D01*
X80670000Y-107789017D01*
X80670000Y-101439017D01*
X82185510Y-101439017D01*
X82185510Y-101760983D01*
X82248322Y-102076763D01*
X82371533Y-102374222D01*
X82550408Y-102641927D01*
X82778073Y-102869592D01*
X83045778Y-103048467D01*
X83343237Y-103171678D01*
X83659017Y-103234490D01*
X83980983Y-103234490D01*
X84296763Y-103171678D01*
X84594222Y-103048467D01*
X84861927Y-102869592D01*
X85089592Y-102641927D01*
X85268467Y-102374222D01*
X85391678Y-102076763D01*
X85454490Y-101760983D01*
X85454490Y-101498061D01*
X95485000Y-101498061D01*
X95485000Y-101701939D01*
X95524774Y-101901898D01*
X95602795Y-102090256D01*
X95716063Y-102259774D01*
X95860226Y-102403937D01*
X96029744Y-102517205D01*
X96218102Y-102595226D01*
X96418061Y-102635000D01*
X96621939Y-102635000D01*
X96821898Y-102595226D01*
X97010256Y-102517205D01*
X97179774Y-102403937D01*
X97223711Y-102360000D01*
X97475199Y-102360000D01*
X98025000Y-102909802D01*
X98025000Y-102971939D01*
X98064774Y-103171898D01*
X98142795Y-103360256D01*
X98256063Y-103529774D01*
X98400226Y-103673937D01*
X98569744Y-103787205D01*
X98758102Y-103865226D01*
X98958061Y-103905000D01*
X99161939Y-103905000D01*
X99361898Y-103865226D01*
X99550256Y-103787205D01*
X99719774Y-103673937D01*
X99863937Y-103529774D01*
X99977205Y-103360256D01*
X100055226Y-103171898D01*
X100095000Y-102971939D01*
X100095000Y-102768061D01*
X100055226Y-102568102D01*
X99977205Y-102379744D01*
X99863937Y-102210226D01*
X99719774Y-102066063D01*
X99550256Y-101952795D01*
X99361898Y-101874774D01*
X99161939Y-101835000D01*
X99099802Y-101835000D01*
X98353804Y-101089003D01*
X98330001Y-101059999D01*
X98214276Y-100965026D01*
X98082247Y-100894454D01*
X97938986Y-100850997D01*
X97827333Y-100840000D01*
X97827322Y-100840000D01*
X97790000Y-100836324D01*
X97752678Y-100840000D01*
X97223711Y-100840000D01*
X97179774Y-100796063D01*
X97010256Y-100682795D01*
X96821898Y-100604774D01*
X96621939Y-100565000D01*
X96418061Y-100565000D01*
X96218102Y-100604774D01*
X96029744Y-100682795D01*
X95860226Y-100796063D01*
X95716063Y-100940226D01*
X95602795Y-101109744D01*
X95524774Y-101298102D01*
X95485000Y-101498061D01*
X85454490Y-101498061D01*
X85454490Y-101439017D01*
X85391678Y-101123237D01*
X85268467Y-100825778D01*
X85089592Y-100558073D01*
X84861927Y-100330408D01*
X84594222Y-100151533D01*
X84296763Y-100028322D01*
X83980983Y-99965510D01*
X83659017Y-99965510D01*
X83343237Y-100028322D01*
X83045778Y-100151533D01*
X82778073Y-100330408D01*
X82550408Y-100558073D01*
X82371533Y-100825778D01*
X82248322Y-101123237D01*
X82185510Y-101439017D01*
X80670000Y-101439017D01*
X80670000Y-96790510D01*
X82182438Y-96790510D01*
X82182438Y-98789490D01*
X82194698Y-98913972D01*
X82231008Y-99033670D01*
X82289973Y-99143984D01*
X82369325Y-99240675D01*
X82466016Y-99320027D01*
X82576330Y-99378992D01*
X82696028Y-99415302D01*
X82820510Y-99427562D01*
X84819490Y-99427562D01*
X84943972Y-99415302D01*
X85063670Y-99378992D01*
X85173984Y-99320027D01*
X85270675Y-99240675D01*
X85350027Y-99143984D01*
X85408992Y-99033670D01*
X85445302Y-98913972D01*
X85457562Y-98789490D01*
X85457562Y-96790510D01*
X85445302Y-96666028D01*
X85408992Y-96546330D01*
X85350027Y-96436016D01*
X85270675Y-96339325D01*
X85173984Y-96259973D01*
X85063670Y-96201008D01*
X84943972Y-96164698D01*
X84819490Y-96152438D01*
X82820510Y-96152438D01*
X82696028Y-96164698D01*
X82576330Y-96201008D01*
X82466016Y-96259973D01*
X82369325Y-96339325D01*
X82289973Y-96436016D01*
X82231008Y-96546330D01*
X82194698Y-96666028D01*
X82182438Y-96790510D01*
X80670000Y-96790510D01*
X80670000Y-92575050D01*
X82864555Y-92575050D01*
X82960258Y-92839399D01*
X83249787Y-92980238D01*
X83561229Y-93061885D01*
X83882615Y-93081205D01*
X84201595Y-93037454D01*
X84505911Y-92932314D01*
X84679742Y-92839399D01*
X84775445Y-92575050D01*
X83820000Y-91619605D01*
X82864555Y-92575050D01*
X80670000Y-92575050D01*
X80670000Y-91502615D01*
X82178795Y-91502615D01*
X82222546Y-91821595D01*
X82327686Y-92125911D01*
X82420601Y-92299742D01*
X82684950Y-92395445D01*
X83640395Y-91440000D01*
X83999605Y-91440000D01*
X84955050Y-92395445D01*
X85219399Y-92299742D01*
X85360238Y-92010213D01*
X85441885Y-91698771D01*
X85461205Y-91377385D01*
X85417454Y-91058405D01*
X85312314Y-90754089D01*
X85219399Y-90580258D01*
X84955050Y-90484555D01*
X83999605Y-91440000D01*
X83640395Y-91440000D01*
X82684950Y-90484555D01*
X82420601Y-90580258D01*
X82279762Y-90869787D01*
X82198115Y-91181229D01*
X82178795Y-91502615D01*
X80670000Y-91502615D01*
X80670000Y-90304950D01*
X82864555Y-90304950D01*
X83820000Y-91260395D01*
X84775445Y-90304950D01*
X84679742Y-90040601D01*
X84390213Y-89899762D01*
X84078771Y-89818115D01*
X83757385Y-89798795D01*
X83438405Y-89842546D01*
X83134089Y-89947686D01*
X82960258Y-90040601D01*
X82864555Y-90304950D01*
X80670000Y-90304950D01*
X80670000Y-86630510D01*
X82182438Y-86630510D01*
X82182438Y-88629490D01*
X82194698Y-88753972D01*
X82231008Y-88873670D01*
X82289973Y-88983984D01*
X82369325Y-89080675D01*
X82466016Y-89160027D01*
X82576330Y-89218992D01*
X82696028Y-89255302D01*
X82820510Y-89267562D01*
X84819490Y-89267562D01*
X84943972Y-89255302D01*
X85063670Y-89218992D01*
X85173984Y-89160027D01*
X85270675Y-89080675D01*
X85327008Y-89012033D01*
X85364774Y-89201898D01*
X85442795Y-89390256D01*
X85556063Y-89559774D01*
X85600001Y-89603712D01*
X85600000Y-91477332D01*
X85600001Y-91477342D01*
X85600000Y-99626289D01*
X85556063Y-99670226D01*
X85442795Y-99839744D01*
X85364774Y-100028102D01*
X85325000Y-100228061D01*
X85325000Y-100431939D01*
X85364774Y-100631898D01*
X85442795Y-100820256D01*
X85556063Y-100989774D01*
X85700226Y-101133937D01*
X85869744Y-101247205D01*
X86058102Y-101325226D01*
X86258061Y-101365000D01*
X86461939Y-101365000D01*
X86661898Y-101325226D01*
X86850256Y-101247205D01*
X87019774Y-101133937D01*
X87163937Y-100989774D01*
X87277205Y-100820256D01*
X87355226Y-100631898D01*
X87395000Y-100431939D01*
X87395000Y-100228061D01*
X87355226Y-100028102D01*
X87277205Y-99839744D01*
X87163937Y-99670226D01*
X87120000Y-99626289D01*
X87120000Y-89603711D01*
X87163937Y-89559774D01*
X87277205Y-89390256D01*
X87355226Y-89201898D01*
X87395000Y-89001939D01*
X87395000Y-88798061D01*
X89135000Y-88798061D01*
X89135000Y-89001939D01*
X89174774Y-89201898D01*
X89252795Y-89390256D01*
X89366063Y-89559774D01*
X89510226Y-89703937D01*
X89679744Y-89817205D01*
X89868102Y-89895226D01*
X90068061Y-89935000D01*
X90271939Y-89935000D01*
X90471898Y-89895226D01*
X90660256Y-89817205D01*
X90829774Y-89703937D01*
X90873711Y-89660000D01*
X91125199Y-89660000D01*
X92080819Y-90615621D01*
X92050226Y-90636063D01*
X92006289Y-90680000D01*
X90873711Y-90680000D01*
X90829774Y-90636063D01*
X90660256Y-90522795D01*
X90471898Y-90444774D01*
X90271939Y-90405000D01*
X90068061Y-90405000D01*
X89868102Y-90444774D01*
X89679744Y-90522795D01*
X89510226Y-90636063D01*
X89366063Y-90780226D01*
X89252795Y-90949744D01*
X89174774Y-91138102D01*
X89135000Y-91338061D01*
X89135000Y-91541939D01*
X89174774Y-91741898D01*
X89252795Y-91930256D01*
X89366063Y-92099774D01*
X89410001Y-92143712D01*
X89410000Y-98356289D01*
X89366063Y-98400226D01*
X89252795Y-98569744D01*
X89174774Y-98758102D01*
X89135000Y-98958061D01*
X89135000Y-99161939D01*
X89174774Y-99361898D01*
X89252795Y-99550256D01*
X89366063Y-99719774D01*
X89510226Y-99863937D01*
X89679744Y-99977205D01*
X89868102Y-100055226D01*
X90068061Y-100095000D01*
X90271939Y-100095000D01*
X90471898Y-100055226D01*
X90660256Y-99977205D01*
X90829774Y-99863937D01*
X90973937Y-99719774D01*
X91087205Y-99550256D01*
X91165226Y-99361898D01*
X91205000Y-99161939D01*
X91205000Y-98958061D01*
X91165226Y-98758102D01*
X91087205Y-98569744D01*
X90973937Y-98400226D01*
X90930000Y-98356289D01*
X90930000Y-92200000D01*
X92006289Y-92200000D01*
X92050226Y-92243937D01*
X92219744Y-92357205D01*
X92408102Y-92435226D01*
X92608061Y-92475000D01*
X92811939Y-92475000D01*
X93011898Y-92435226D01*
X93200256Y-92357205D01*
X93345000Y-92260490D01*
X93489744Y-92357205D01*
X93678102Y-92435226D01*
X93878061Y-92475000D01*
X93940199Y-92475000D01*
X94490001Y-93024803D01*
X94490000Y-98745198D01*
X93940199Y-99295000D01*
X93878061Y-99295000D01*
X93678102Y-99334774D01*
X93489744Y-99412795D01*
X93320226Y-99526063D01*
X93176063Y-99670226D01*
X93062795Y-99839744D01*
X92984774Y-100028102D01*
X92945000Y-100228061D01*
X92945000Y-100431939D01*
X92984774Y-100631898D01*
X93062795Y-100820256D01*
X93176063Y-100989774D01*
X93320226Y-101133937D01*
X93489744Y-101247205D01*
X93678102Y-101325226D01*
X93878061Y-101365000D01*
X94081939Y-101365000D01*
X94281898Y-101325226D01*
X94470256Y-101247205D01*
X94639774Y-101133937D01*
X94783937Y-100989774D01*
X94897205Y-100820256D01*
X94975226Y-100631898D01*
X95015000Y-100431939D01*
X95015000Y-100369801D01*
X95761004Y-99623798D01*
X95790001Y-99600001D01*
X95884974Y-99484276D01*
X95955546Y-99352247D01*
X95999003Y-99208986D01*
X96010000Y-99097333D01*
X96010000Y-99097324D01*
X96013676Y-99060001D01*
X96010000Y-99022678D01*
X96010000Y-98958061D01*
X97085000Y-98958061D01*
X97085000Y-99161939D01*
X97124774Y-99361898D01*
X97202795Y-99550256D01*
X97316063Y-99719774D01*
X97460226Y-99863937D01*
X97629744Y-99977205D01*
X97818102Y-100055226D01*
X98018061Y-100095000D01*
X98221939Y-100095000D01*
X98421898Y-100055226D01*
X98610256Y-99977205D01*
X98779774Y-99863937D01*
X98823711Y-99820000D01*
X99022678Y-99820000D01*
X99060000Y-99823676D01*
X99097322Y-99820000D01*
X99097333Y-99820000D01*
X99208986Y-99809003D01*
X99352247Y-99765546D01*
X99484276Y-99694974D01*
X99600001Y-99600001D01*
X99623804Y-99570997D01*
X99824810Y-99369991D01*
X100201600Y-99369991D01*
X102122620Y-101291012D01*
X102146418Y-101320010D01*
X102175416Y-101343808D01*
X102262142Y-101414983D01*
X102329551Y-101451014D01*
X102394172Y-101485555D01*
X102537433Y-101529012D01*
X102649086Y-101540009D01*
X102649096Y-101540009D01*
X102686419Y-101543685D01*
X102723742Y-101540009D01*
X107462669Y-101540009D01*
X107499991Y-101543685D01*
X107537313Y-101540009D01*
X107537324Y-101540009D01*
X107648977Y-101529012D01*
X107792238Y-101485555D01*
X107924267Y-101414983D01*
X107985171Y-101365000D01*
X108051939Y-101365000D01*
X108251898Y-101325226D01*
X108440256Y-101247205D01*
X108609774Y-101133937D01*
X108753937Y-100989774D01*
X108867205Y-100820256D01*
X108945226Y-100631898D01*
X108985000Y-100431939D01*
X108985000Y-100228061D01*
X108945226Y-100028102D01*
X108867205Y-99839744D01*
X108753937Y-99670226D01*
X108609774Y-99526063D01*
X108440256Y-99412795D01*
X108251898Y-99334774D01*
X108051939Y-99295000D01*
X107888899Y-99295000D01*
X107890009Y-99283733D01*
X107890009Y-99283724D01*
X107893685Y-99246402D01*
X107890009Y-99209079D01*
X107890009Y-98910932D01*
X107893686Y-98873599D01*
X107882397Y-98758976D01*
X107879012Y-98724613D01*
X107835555Y-98581352D01*
X107764983Y-98449323D01*
X107670010Y-98333598D01*
X107641013Y-98309801D01*
X105340214Y-96009003D01*
X105316411Y-95979999D01*
X105200686Y-95885026D01*
X105068657Y-95814454D01*
X104925396Y-95770997D01*
X104846985Y-95763274D01*
X104799774Y-95716063D01*
X104630256Y-95602795D01*
X104441898Y-95524774D01*
X104420462Y-95520510D01*
X112662438Y-95520510D01*
X112662438Y-97519490D01*
X112674698Y-97643972D01*
X112711008Y-97763670D01*
X112769973Y-97873984D01*
X112849325Y-97970675D01*
X112946016Y-98050027D01*
X113056330Y-98108992D01*
X113176028Y-98145302D01*
X113300510Y-98157562D01*
X115299490Y-98157562D01*
X115423972Y-98145302D01*
X115543670Y-98108992D01*
X115653984Y-98050027D01*
X115750675Y-97970675D01*
X115830027Y-97873984D01*
X115888992Y-97763670D01*
X115925302Y-97643972D01*
X115937562Y-97519490D01*
X115937562Y-95520510D01*
X115925302Y-95396028D01*
X115888992Y-95276330D01*
X115830027Y-95166016D01*
X115750675Y-95069325D01*
X115653984Y-94989973D01*
X115543670Y-94931008D01*
X115423972Y-94894698D01*
X115299490Y-94882438D01*
X113300510Y-94882438D01*
X113176028Y-94894698D01*
X113056330Y-94931008D01*
X112946016Y-94989973D01*
X112849325Y-95069325D01*
X112769973Y-95166016D01*
X112711008Y-95276330D01*
X112674698Y-95396028D01*
X112662438Y-95520510D01*
X104420462Y-95520510D01*
X104241939Y-95485000D01*
X104038061Y-95485000D01*
X103838102Y-95524774D01*
X103649744Y-95602795D01*
X103480226Y-95716063D01*
X103336063Y-95860226D01*
X103222795Y-96029744D01*
X103144774Y-96218102D01*
X103105000Y-96418061D01*
X103105000Y-96621939D01*
X103144774Y-96821898D01*
X103222795Y-97010256D01*
X103336063Y-97179774D01*
X103480226Y-97323937D01*
X103649744Y-97437205D01*
X103838102Y-97515226D01*
X104038061Y-97555000D01*
X104241939Y-97555000D01*
X104441898Y-97515226D01*
X104622165Y-97440556D01*
X105931617Y-98750009D01*
X103723911Y-98750009D01*
X103673937Y-98675217D01*
X103529774Y-98531054D01*
X103360256Y-98417786D01*
X103171898Y-98339765D01*
X102971939Y-98299991D01*
X102768061Y-98299991D01*
X102568102Y-98339765D01*
X102379744Y-98417786D01*
X102210226Y-98531054D01*
X102066063Y-98675217D01*
X101952795Y-98844735D01*
X101915642Y-98934430D01*
X101080205Y-98098994D01*
X101056402Y-98069990D01*
X100940677Y-97975017D01*
X100808648Y-97904445D01*
X100665387Y-97860988D01*
X100553734Y-97849991D01*
X100553723Y-97849991D01*
X100516401Y-97846315D01*
X100479079Y-97849991D01*
X99547332Y-97849991D01*
X99510009Y-97846315D01*
X99472686Y-97849991D01*
X99472676Y-97849991D01*
X99361023Y-97860988D01*
X99217762Y-97904445D01*
X99085733Y-97975017D01*
X98970008Y-98069990D01*
X98946205Y-98098994D01*
X98784455Y-98260744D01*
X98779774Y-98256063D01*
X98610256Y-98142795D01*
X98421898Y-98064774D01*
X98221939Y-98025000D01*
X98018061Y-98025000D01*
X97818102Y-98064774D01*
X97629744Y-98142795D01*
X97460226Y-98256063D01*
X97316063Y-98400226D01*
X97202795Y-98569744D01*
X97124774Y-98758102D01*
X97085000Y-98958061D01*
X96010000Y-98958061D01*
X96010000Y-94884013D01*
X96029744Y-94897205D01*
X96218102Y-94975226D01*
X96418061Y-95015000D01*
X96621939Y-95015000D01*
X96821898Y-94975226D01*
X97010256Y-94897205D01*
X97179774Y-94783937D01*
X97323937Y-94639774D01*
X97396250Y-94531550D01*
X97468563Y-94639774D01*
X97612726Y-94783937D01*
X97782244Y-94897205D01*
X97970602Y-94975226D01*
X98170561Y-95015000D01*
X98374439Y-95015000D01*
X98574398Y-94975226D01*
X98762756Y-94897205D01*
X98932274Y-94783937D01*
X98976211Y-94740000D01*
X100292678Y-94740000D01*
X100330000Y-94743676D01*
X100367322Y-94740000D01*
X100367333Y-94740000D01*
X100478986Y-94729003D01*
X100622247Y-94685546D01*
X100754276Y-94614974D01*
X100870001Y-94520001D01*
X100893804Y-94490997D01*
X101914802Y-93470000D01*
X103436289Y-93470000D01*
X103480226Y-93513937D01*
X103649744Y-93627205D01*
X103838102Y-93705226D01*
X104038061Y-93745000D01*
X104241939Y-93745000D01*
X104441898Y-93705226D01*
X104630256Y-93627205D01*
X104799774Y-93513937D01*
X104943937Y-93369774D01*
X105057205Y-93200256D01*
X105135226Y-93011898D01*
X105175000Y-92811939D01*
X105175000Y-92608061D01*
X105163256Y-92549017D01*
X112665510Y-92549017D01*
X112665510Y-92870983D01*
X112728322Y-93186763D01*
X112851533Y-93484222D01*
X113030408Y-93751927D01*
X113258073Y-93979592D01*
X113525778Y-94158467D01*
X113823237Y-94281678D01*
X114139017Y-94344490D01*
X114460983Y-94344490D01*
X114776763Y-94281678D01*
X115074222Y-94158467D01*
X115341927Y-93979592D01*
X115569592Y-93751927D01*
X115748467Y-93484222D01*
X115871678Y-93186763D01*
X115934490Y-92870983D01*
X115934490Y-92549017D01*
X115871678Y-92233237D01*
X115748467Y-91935778D01*
X115569592Y-91668073D01*
X115341927Y-91440408D01*
X115074222Y-91261533D01*
X114776763Y-91138322D01*
X114460983Y-91075510D01*
X114139017Y-91075510D01*
X113823237Y-91138322D01*
X113525778Y-91261533D01*
X113258073Y-91440408D01*
X113030408Y-91668073D01*
X112851533Y-91935778D01*
X112728322Y-92233237D01*
X112665510Y-92549017D01*
X105163256Y-92549017D01*
X105135226Y-92408102D01*
X105057205Y-92219744D01*
X104943937Y-92050226D01*
X104799774Y-91906063D01*
X104630256Y-91792795D01*
X104441898Y-91714774D01*
X104241939Y-91675000D01*
X104038061Y-91675000D01*
X103838102Y-91714774D01*
X103649744Y-91792795D01*
X103480226Y-91906063D01*
X103436289Y-91950000D01*
X101637322Y-91950000D01*
X101599999Y-91946324D01*
X101562676Y-91950000D01*
X101562667Y-91950000D01*
X101451014Y-91960997D01*
X101307753Y-92004454D01*
X101175724Y-92075026D01*
X101080705Y-92153006D01*
X101133937Y-92099774D01*
X101247205Y-91930256D01*
X101325226Y-91741898D01*
X101365000Y-91541939D01*
X101365000Y-91338061D01*
X101331961Y-91171961D01*
X101498061Y-91205000D01*
X101701939Y-91205000D01*
X101901898Y-91165226D01*
X102090256Y-91087205D01*
X102259774Y-90973937D01*
X102403937Y-90829774D01*
X102517205Y-90660256D01*
X102595226Y-90471898D01*
X102635000Y-90271939D01*
X102635000Y-90068061D01*
X102595226Y-89868102D01*
X102517205Y-89679744D01*
X102403937Y-89510226D01*
X102259774Y-89366063D01*
X102090256Y-89252795D01*
X101901898Y-89174774D01*
X101701939Y-89135000D01*
X101498061Y-89135000D01*
X101298102Y-89174774D01*
X101109744Y-89252795D01*
X100940226Y-89366063D01*
X100896289Y-89410000D01*
X97223711Y-89410000D01*
X97179774Y-89366063D01*
X97010256Y-89252795D01*
X96821898Y-89174774D01*
X96621939Y-89135000D01*
X96418061Y-89135000D01*
X96218102Y-89174774D01*
X96029744Y-89252795D01*
X95860226Y-89366063D01*
X95716063Y-89510226D01*
X95602795Y-89679744D01*
X95524774Y-89868102D01*
X95485000Y-90068061D01*
X95485000Y-90271939D01*
X95524774Y-90471898D01*
X95602795Y-90660256D01*
X95716063Y-90829774D01*
X95860226Y-90973937D01*
X96029744Y-91087205D01*
X96218102Y-91165226D01*
X96418061Y-91205000D01*
X96621939Y-91205000D01*
X96821898Y-91165226D01*
X97010256Y-91087205D01*
X97179774Y-90973937D01*
X97223711Y-90930000D01*
X99425987Y-90930000D01*
X99412795Y-90949744D01*
X99334774Y-91138102D01*
X99295000Y-91338061D01*
X99295000Y-91400198D01*
X98745199Y-91950000D01*
X98493711Y-91950000D01*
X98449774Y-91906063D01*
X98280256Y-91792795D01*
X98091898Y-91714774D01*
X97891939Y-91675000D01*
X97688061Y-91675000D01*
X97488102Y-91714774D01*
X97299744Y-91792795D01*
X97130226Y-91906063D01*
X96986063Y-92050226D01*
X96965621Y-92080819D01*
X93464847Y-88580046D01*
X93464847Y-88517908D01*
X93425073Y-88317949D01*
X93347052Y-88129591D01*
X93233784Y-87960073D01*
X93089621Y-87815910D01*
X92920103Y-87702642D01*
X92731745Y-87624621D01*
X92531786Y-87584847D01*
X92327908Y-87584847D01*
X92127949Y-87624621D01*
X91939591Y-87702642D01*
X91770073Y-87815910D01*
X91625910Y-87960073D01*
X91512642Y-88129591D01*
X91507115Y-88142933D01*
X91477333Y-88140000D01*
X91477322Y-88140000D01*
X91440000Y-88136324D01*
X91402678Y-88140000D01*
X90873711Y-88140000D01*
X90829774Y-88096063D01*
X90660256Y-87982795D01*
X90471898Y-87904774D01*
X90271939Y-87865000D01*
X90068061Y-87865000D01*
X89868102Y-87904774D01*
X89679744Y-87982795D01*
X89510226Y-88096063D01*
X89366063Y-88240226D01*
X89252795Y-88409744D01*
X89174774Y-88598102D01*
X89135000Y-88798061D01*
X87395000Y-88798061D01*
X87355226Y-88598102D01*
X87277205Y-88409744D01*
X87163937Y-88240226D01*
X87019774Y-88096063D01*
X86850256Y-87982795D01*
X86661898Y-87904774D01*
X86461939Y-87865000D01*
X86258061Y-87865000D01*
X86058102Y-87904774D01*
X85869744Y-87982795D01*
X85700226Y-88096063D01*
X85556063Y-88240226D01*
X85457562Y-88387644D01*
X85457562Y-86630510D01*
X85445302Y-86506028D01*
X85408992Y-86386330D01*
X85350027Y-86276016D01*
X85270675Y-86179325D01*
X85173984Y-86099973D01*
X85063670Y-86041008D01*
X84943972Y-86004698D01*
X84819490Y-85992438D01*
X82820510Y-85992438D01*
X82696028Y-86004698D01*
X82576330Y-86041008D01*
X82466016Y-86099973D01*
X82369325Y-86179325D01*
X82289973Y-86276016D01*
X82231008Y-86386330D01*
X82194698Y-86506028D01*
X82182438Y-86630510D01*
X80670000Y-86630510D01*
X80670000Y-82582279D01*
X80684722Y-82432131D01*
X80718953Y-82318754D01*
X80774555Y-82214181D01*
X80849407Y-82122404D01*
X80940664Y-82046909D01*
X81044844Y-81990581D01*
X81157976Y-81955560D01*
X81306022Y-81940000D01*
X116807721Y-81940000D01*
X116957869Y-81954722D01*
M02*
