G04 #@! TF.GenerationSoftware,KiCad,Pcbnew,(5.1.2)-1*
G04 #@! TF.CreationDate,2019-09-27T08:17:11+00:00*
G04 #@! TF.ProjectId,lilikitPCB,6c696c69-6b69-4745-9043-422e6b696361,V01*
G04 #@! TF.SameCoordinates,Original*
G04 #@! TF.FileFunction,Soldermask,Top*
G04 #@! TF.FilePolarity,Negative*
%FSLAX46Y46*%
G04 Gerber Fmt 4.6, Leading zero omitted, Abs format (unit mm)*
G04 Created by KiCad (PCBNEW (5.1.2)-1) date 2019-09-27 08:17:11*
%MOMM*%
%LPD*%
G04 APERTURE LIST*
%ADD10C,0.100000*%
G04 APERTURE END LIST*
D10*
G36*
X105190490Y-109000490D02*
G01*
X103089510Y-109000490D01*
X103089510Y-106899510D01*
X105190490Y-106899510D01*
X105190490Y-109000490D01*
X105190490Y-109000490D01*
G37*
G36*
X100636416Y-106939879D02*
G01*
X100827592Y-107019067D01*
X100827594Y-107019068D01*
X100999648Y-107134031D01*
X101145969Y-107280352D01*
X101255329Y-107444020D01*
X101260933Y-107452408D01*
X101340121Y-107643584D01*
X101380490Y-107846534D01*
X101380490Y-108053466D01*
X101340121Y-108256416D01*
X101273668Y-108416847D01*
X101260932Y-108447594D01*
X101145969Y-108619648D01*
X100999648Y-108765969D01*
X100827594Y-108880932D01*
X100827593Y-108880933D01*
X100827592Y-108880933D01*
X100636416Y-108960121D01*
X100433466Y-109000490D01*
X100226534Y-109000490D01*
X100023584Y-108960121D01*
X99832408Y-108880933D01*
X99832407Y-108880933D01*
X99832406Y-108880932D01*
X99660352Y-108765969D01*
X99514031Y-108619648D01*
X99399068Y-108447594D01*
X99386332Y-108416847D01*
X99319879Y-108256416D01*
X99279510Y-108053466D01*
X99279510Y-107846534D01*
X99319879Y-107643584D01*
X99399067Y-107452408D01*
X99404672Y-107444020D01*
X99514031Y-107280352D01*
X99660352Y-107134031D01*
X99832406Y-107019068D01*
X99832408Y-107019067D01*
X100023584Y-106939879D01*
X100226534Y-106899510D01*
X100433466Y-106899510D01*
X100636416Y-106939879D01*
X100636416Y-106939879D01*
G37*
G36*
X110509499Y-107428445D02*
G01*
X110546995Y-107439820D01*
X110581554Y-107458292D01*
X110611847Y-107483153D01*
X110636708Y-107513446D01*
X110655180Y-107548005D01*
X110666555Y-107585501D01*
X110671000Y-107630638D01*
X110671000Y-108269362D01*
X110666555Y-108314499D01*
X110655180Y-108351995D01*
X110636708Y-108386554D01*
X110611847Y-108416847D01*
X110581554Y-108441708D01*
X110546995Y-108460180D01*
X110509499Y-108471555D01*
X110464362Y-108476000D01*
X109725638Y-108476000D01*
X109680501Y-108471555D01*
X109643005Y-108460180D01*
X109608446Y-108441708D01*
X109578153Y-108416847D01*
X109553292Y-108386554D01*
X109534820Y-108351995D01*
X109523445Y-108314499D01*
X109519000Y-108269362D01*
X109519000Y-107630638D01*
X109523445Y-107585501D01*
X109534820Y-107548005D01*
X109553292Y-107513446D01*
X109578153Y-107483153D01*
X109608446Y-107458292D01*
X109643005Y-107439820D01*
X109680501Y-107428445D01*
X109725638Y-107424000D01*
X110464362Y-107424000D01*
X110509499Y-107428445D01*
X110509499Y-107428445D01*
G37*
G36*
X93999499Y-107428445D02*
G01*
X94036995Y-107439820D01*
X94071554Y-107458292D01*
X94101847Y-107483153D01*
X94126708Y-107513446D01*
X94145180Y-107548005D01*
X94156555Y-107585501D01*
X94161000Y-107630638D01*
X94161000Y-108269362D01*
X94156555Y-108314499D01*
X94145180Y-108351995D01*
X94126708Y-108386554D01*
X94101847Y-108416847D01*
X94071554Y-108441708D01*
X94036995Y-108460180D01*
X93999499Y-108471555D01*
X93954362Y-108476000D01*
X93215638Y-108476000D01*
X93170501Y-108471555D01*
X93133005Y-108460180D01*
X93098446Y-108441708D01*
X93068153Y-108416847D01*
X93043292Y-108386554D01*
X93024820Y-108351995D01*
X93013445Y-108314499D01*
X93009000Y-108269362D01*
X93009000Y-107630638D01*
X93013445Y-107585501D01*
X93024820Y-107548005D01*
X93043292Y-107513446D01*
X93068153Y-107483153D01*
X93098446Y-107458292D01*
X93133005Y-107439820D01*
X93170501Y-107428445D01*
X93215638Y-107424000D01*
X93954362Y-107424000D01*
X93999499Y-107428445D01*
X93999499Y-107428445D01*
G37*
G36*
X92249499Y-107428445D02*
G01*
X92286995Y-107439820D01*
X92321554Y-107458292D01*
X92351847Y-107483153D01*
X92376708Y-107513446D01*
X92395180Y-107548005D01*
X92406555Y-107585501D01*
X92411000Y-107630638D01*
X92411000Y-108269362D01*
X92406555Y-108314499D01*
X92395180Y-108351995D01*
X92376708Y-108386554D01*
X92351847Y-108416847D01*
X92321554Y-108441708D01*
X92286995Y-108460180D01*
X92249499Y-108471555D01*
X92204362Y-108476000D01*
X91465638Y-108476000D01*
X91420501Y-108471555D01*
X91383005Y-108460180D01*
X91348446Y-108441708D01*
X91318153Y-108416847D01*
X91293292Y-108386554D01*
X91274820Y-108351995D01*
X91263445Y-108314499D01*
X91259000Y-108269362D01*
X91259000Y-107630638D01*
X91263445Y-107585501D01*
X91274820Y-107548005D01*
X91293292Y-107513446D01*
X91318153Y-107483153D01*
X91348446Y-107458292D01*
X91383005Y-107439820D01*
X91420501Y-107428445D01*
X91465638Y-107424000D01*
X92204362Y-107424000D01*
X92249499Y-107428445D01*
X92249499Y-107428445D01*
G37*
G36*
X86219591Y-107428085D02*
G01*
X86253569Y-107438393D01*
X86284890Y-107455134D01*
X86312339Y-107477661D01*
X86334866Y-107505110D01*
X86351607Y-107536431D01*
X86361915Y-107570409D01*
X86366000Y-107611890D01*
X86366000Y-108288110D01*
X86361915Y-108329591D01*
X86351607Y-108363569D01*
X86334866Y-108394890D01*
X86312339Y-108422339D01*
X86284890Y-108444866D01*
X86253569Y-108461607D01*
X86219591Y-108471915D01*
X86178110Y-108476000D01*
X85576890Y-108476000D01*
X85535409Y-108471915D01*
X85501431Y-108461607D01*
X85470110Y-108444866D01*
X85442661Y-108422339D01*
X85420134Y-108394890D01*
X85403393Y-108363569D01*
X85393085Y-108329591D01*
X85389000Y-108288110D01*
X85389000Y-107611890D01*
X85393085Y-107570409D01*
X85403393Y-107536431D01*
X85420134Y-107505110D01*
X85442661Y-107477661D01*
X85470110Y-107455134D01*
X85501431Y-107438393D01*
X85535409Y-107428085D01*
X85576890Y-107424000D01*
X86178110Y-107424000D01*
X86219591Y-107428085D01*
X86219591Y-107428085D01*
G37*
G36*
X84644591Y-107428085D02*
G01*
X84678569Y-107438393D01*
X84709890Y-107455134D01*
X84737339Y-107477661D01*
X84759866Y-107505110D01*
X84776607Y-107536431D01*
X84786915Y-107570409D01*
X84791000Y-107611890D01*
X84791000Y-108288110D01*
X84786915Y-108329591D01*
X84776607Y-108363569D01*
X84759866Y-108394890D01*
X84737339Y-108422339D01*
X84709890Y-108444866D01*
X84678569Y-108461607D01*
X84644591Y-108471915D01*
X84603110Y-108476000D01*
X84001890Y-108476000D01*
X83960409Y-108471915D01*
X83926431Y-108461607D01*
X83895110Y-108444866D01*
X83867661Y-108422339D01*
X83845134Y-108394890D01*
X83828393Y-108363569D01*
X83818085Y-108329591D01*
X83814000Y-108288110D01*
X83814000Y-107611890D01*
X83818085Y-107570409D01*
X83828393Y-107536431D01*
X83845134Y-107505110D01*
X83867661Y-107477661D01*
X83895110Y-107455134D01*
X83926431Y-107438393D01*
X83960409Y-107428085D01*
X84001890Y-107424000D01*
X84603110Y-107424000D01*
X84644591Y-107428085D01*
X84644591Y-107428085D01*
G37*
G36*
X97809499Y-107428445D02*
G01*
X97846995Y-107439820D01*
X97881554Y-107458292D01*
X97911847Y-107483153D01*
X97936708Y-107513446D01*
X97955180Y-107548005D01*
X97966555Y-107585501D01*
X97971000Y-107630638D01*
X97971000Y-108269362D01*
X97966555Y-108314499D01*
X97955180Y-108351995D01*
X97936708Y-108386554D01*
X97911847Y-108416847D01*
X97881554Y-108441708D01*
X97846995Y-108460180D01*
X97809499Y-108471555D01*
X97764362Y-108476000D01*
X97025638Y-108476000D01*
X96980501Y-108471555D01*
X96943005Y-108460180D01*
X96908446Y-108441708D01*
X96878153Y-108416847D01*
X96853292Y-108386554D01*
X96834820Y-108351995D01*
X96823445Y-108314499D01*
X96819000Y-108269362D01*
X96819000Y-107630638D01*
X96823445Y-107585501D01*
X96834820Y-107548005D01*
X96853292Y-107513446D01*
X96878153Y-107483153D01*
X96908446Y-107458292D01*
X96943005Y-107439820D01*
X96980501Y-107428445D01*
X97025638Y-107424000D01*
X97764362Y-107424000D01*
X97809499Y-107428445D01*
X97809499Y-107428445D01*
G37*
G36*
X96059499Y-107428445D02*
G01*
X96096995Y-107439820D01*
X96131554Y-107458292D01*
X96161847Y-107483153D01*
X96186708Y-107513446D01*
X96205180Y-107548005D01*
X96216555Y-107585501D01*
X96221000Y-107630638D01*
X96221000Y-108269362D01*
X96216555Y-108314499D01*
X96205180Y-108351995D01*
X96186708Y-108386554D01*
X96161847Y-108416847D01*
X96131554Y-108441708D01*
X96096995Y-108460180D01*
X96059499Y-108471555D01*
X96014362Y-108476000D01*
X95275638Y-108476000D01*
X95230501Y-108471555D01*
X95193005Y-108460180D01*
X95158446Y-108441708D01*
X95128153Y-108416847D01*
X95103292Y-108386554D01*
X95084820Y-108351995D01*
X95073445Y-108314499D01*
X95069000Y-108269362D01*
X95069000Y-107630638D01*
X95073445Y-107585501D01*
X95084820Y-107548005D01*
X95103292Y-107513446D01*
X95128153Y-107483153D01*
X95158446Y-107458292D01*
X95193005Y-107439820D01*
X95230501Y-107428445D01*
X95275638Y-107424000D01*
X96014362Y-107424000D01*
X96059499Y-107428445D01*
X96059499Y-107428445D01*
G37*
G36*
X88439499Y-107428445D02*
G01*
X88476995Y-107439820D01*
X88511554Y-107458292D01*
X88541847Y-107483153D01*
X88566708Y-107513446D01*
X88585180Y-107548005D01*
X88596555Y-107585501D01*
X88601000Y-107630638D01*
X88601000Y-108269362D01*
X88596555Y-108314499D01*
X88585180Y-108351995D01*
X88566708Y-108386554D01*
X88541847Y-108416847D01*
X88511554Y-108441708D01*
X88476995Y-108460180D01*
X88439499Y-108471555D01*
X88394362Y-108476000D01*
X87655638Y-108476000D01*
X87610501Y-108471555D01*
X87573005Y-108460180D01*
X87538446Y-108441708D01*
X87508153Y-108416847D01*
X87483292Y-108386554D01*
X87464820Y-108351995D01*
X87453445Y-108314499D01*
X87449000Y-108269362D01*
X87449000Y-107630638D01*
X87453445Y-107585501D01*
X87464820Y-107548005D01*
X87483292Y-107513446D01*
X87508153Y-107483153D01*
X87538446Y-107458292D01*
X87573005Y-107439820D01*
X87610501Y-107428445D01*
X87655638Y-107424000D01*
X88394362Y-107424000D01*
X88439499Y-107428445D01*
X88439499Y-107428445D01*
G37*
G36*
X90189499Y-107428445D02*
G01*
X90226995Y-107439820D01*
X90261554Y-107458292D01*
X90291847Y-107483153D01*
X90316708Y-107513446D01*
X90335180Y-107548005D01*
X90346555Y-107585501D01*
X90351000Y-107630638D01*
X90351000Y-108269362D01*
X90346555Y-108314499D01*
X90335180Y-108351995D01*
X90316708Y-108386554D01*
X90291847Y-108416847D01*
X90261554Y-108441708D01*
X90226995Y-108460180D01*
X90189499Y-108471555D01*
X90144362Y-108476000D01*
X89405638Y-108476000D01*
X89360501Y-108471555D01*
X89323005Y-108460180D01*
X89288446Y-108441708D01*
X89258153Y-108416847D01*
X89233292Y-108386554D01*
X89214820Y-108351995D01*
X89203445Y-108314499D01*
X89199000Y-108269362D01*
X89199000Y-107630638D01*
X89203445Y-107585501D01*
X89214820Y-107548005D01*
X89233292Y-107513446D01*
X89258153Y-107483153D01*
X89288446Y-107458292D01*
X89323005Y-107439820D01*
X89360501Y-107428445D01*
X89405638Y-107424000D01*
X90144362Y-107424000D01*
X90189499Y-107428445D01*
X90189499Y-107428445D01*
G37*
G36*
X108759499Y-107428445D02*
G01*
X108796995Y-107439820D01*
X108831554Y-107458292D01*
X108861847Y-107483153D01*
X108886708Y-107513446D01*
X108905180Y-107548005D01*
X108916555Y-107585501D01*
X108921000Y-107630638D01*
X108921000Y-108269362D01*
X108916555Y-108314499D01*
X108905180Y-108351995D01*
X108886708Y-108386554D01*
X108861847Y-108416847D01*
X108831554Y-108441708D01*
X108796995Y-108460180D01*
X108759499Y-108471555D01*
X108714362Y-108476000D01*
X107975638Y-108476000D01*
X107930501Y-108471555D01*
X107893005Y-108460180D01*
X107858446Y-108441708D01*
X107828153Y-108416847D01*
X107803292Y-108386554D01*
X107784820Y-108351995D01*
X107773445Y-108314499D01*
X107769000Y-108269362D01*
X107769000Y-107630638D01*
X107773445Y-107585501D01*
X107784820Y-107548005D01*
X107803292Y-107513446D01*
X107828153Y-107483153D01*
X107858446Y-107458292D01*
X107893005Y-107439820D01*
X107930501Y-107428445D01*
X107975638Y-107424000D01*
X108714362Y-107424000D01*
X108759499Y-107428445D01*
X108759499Y-107428445D01*
G37*
G36*
X88454591Y-102348085D02*
G01*
X88488569Y-102358393D01*
X88519890Y-102375134D01*
X88547339Y-102397661D01*
X88569866Y-102425110D01*
X88586607Y-102456431D01*
X88596915Y-102490409D01*
X88601000Y-102531890D01*
X88601000Y-103208110D01*
X88596915Y-103249591D01*
X88586607Y-103283569D01*
X88569866Y-103314890D01*
X88547339Y-103342339D01*
X88519890Y-103364866D01*
X88488569Y-103381607D01*
X88454591Y-103391915D01*
X88413110Y-103396000D01*
X87811890Y-103396000D01*
X87770409Y-103391915D01*
X87736431Y-103381607D01*
X87705110Y-103364866D01*
X87677661Y-103342339D01*
X87655134Y-103314890D01*
X87638393Y-103283569D01*
X87628085Y-103249591D01*
X87624000Y-103208110D01*
X87624000Y-102531890D01*
X87628085Y-102490409D01*
X87638393Y-102456431D01*
X87655134Y-102425110D01*
X87677661Y-102397661D01*
X87705110Y-102375134D01*
X87736431Y-102358393D01*
X87770409Y-102348085D01*
X87811890Y-102344000D01*
X88413110Y-102344000D01*
X88454591Y-102348085D01*
X88454591Y-102348085D01*
G37*
G36*
X96059499Y-102348445D02*
G01*
X96096995Y-102359820D01*
X96131554Y-102378292D01*
X96161847Y-102403153D01*
X96186708Y-102433446D01*
X96205180Y-102468005D01*
X96216555Y-102505501D01*
X96221000Y-102550638D01*
X96221000Y-103189362D01*
X96216555Y-103234499D01*
X96205180Y-103271995D01*
X96186708Y-103306554D01*
X96161847Y-103336847D01*
X96131554Y-103361708D01*
X96096995Y-103380180D01*
X96059499Y-103391555D01*
X96014362Y-103396000D01*
X95275638Y-103396000D01*
X95230501Y-103391555D01*
X95193005Y-103380180D01*
X95158446Y-103361708D01*
X95128153Y-103336847D01*
X95103292Y-103306554D01*
X95084820Y-103271995D01*
X95073445Y-103234499D01*
X95069000Y-103189362D01*
X95069000Y-102550638D01*
X95073445Y-102505501D01*
X95084820Y-102468005D01*
X95103292Y-102433446D01*
X95128153Y-102403153D01*
X95158446Y-102378292D01*
X95193005Y-102359820D01*
X95230501Y-102348445D01*
X95275638Y-102344000D01*
X96014362Y-102344000D01*
X96059499Y-102348445D01*
X96059499Y-102348445D01*
G37*
G36*
X97809499Y-102348445D02*
G01*
X97846995Y-102359820D01*
X97881554Y-102378292D01*
X97911847Y-102403153D01*
X97936708Y-102433446D01*
X97955180Y-102468005D01*
X97966555Y-102505501D01*
X97971000Y-102550638D01*
X97971000Y-103189362D01*
X97966555Y-103234499D01*
X97955180Y-103271995D01*
X97936708Y-103306554D01*
X97911847Y-103336847D01*
X97881554Y-103361708D01*
X97846995Y-103380180D01*
X97809499Y-103391555D01*
X97764362Y-103396000D01*
X97025638Y-103396000D01*
X96980501Y-103391555D01*
X96943005Y-103380180D01*
X96908446Y-103361708D01*
X96878153Y-103336847D01*
X96853292Y-103306554D01*
X96834820Y-103271995D01*
X96823445Y-103234499D01*
X96819000Y-103189362D01*
X96819000Y-102550638D01*
X96823445Y-102505501D01*
X96834820Y-102468005D01*
X96853292Y-102433446D01*
X96878153Y-102403153D01*
X96908446Y-102378292D01*
X96943005Y-102359820D01*
X96980501Y-102348445D01*
X97025638Y-102344000D01*
X97764362Y-102344000D01*
X97809499Y-102348445D01*
X97809499Y-102348445D01*
G37*
G36*
X92264591Y-102348085D02*
G01*
X92298569Y-102358393D01*
X92329890Y-102375134D01*
X92357339Y-102397661D01*
X92379866Y-102425110D01*
X92396607Y-102456431D01*
X92406915Y-102490409D01*
X92411000Y-102531890D01*
X92411000Y-103208110D01*
X92406915Y-103249591D01*
X92396607Y-103283569D01*
X92379866Y-103314890D01*
X92357339Y-103342339D01*
X92329890Y-103364866D01*
X92298569Y-103381607D01*
X92264591Y-103391915D01*
X92223110Y-103396000D01*
X91621890Y-103396000D01*
X91580409Y-103391915D01*
X91546431Y-103381607D01*
X91515110Y-103364866D01*
X91487661Y-103342339D01*
X91465134Y-103314890D01*
X91448393Y-103283569D01*
X91438085Y-103249591D01*
X91434000Y-103208110D01*
X91434000Y-102531890D01*
X91438085Y-102490409D01*
X91448393Y-102456431D01*
X91465134Y-102425110D01*
X91487661Y-102397661D01*
X91515110Y-102375134D01*
X91546431Y-102358393D01*
X91580409Y-102348085D01*
X91621890Y-102344000D01*
X92223110Y-102344000D01*
X92264591Y-102348085D01*
X92264591Y-102348085D01*
G37*
G36*
X93839591Y-102348085D02*
G01*
X93873569Y-102358393D01*
X93904890Y-102375134D01*
X93932339Y-102397661D01*
X93954866Y-102425110D01*
X93971607Y-102456431D01*
X93981915Y-102490409D01*
X93986000Y-102531890D01*
X93986000Y-103208110D01*
X93981915Y-103249591D01*
X93971607Y-103283569D01*
X93954866Y-103314890D01*
X93932339Y-103342339D01*
X93904890Y-103364866D01*
X93873569Y-103381607D01*
X93839591Y-103391915D01*
X93798110Y-103396000D01*
X93196890Y-103396000D01*
X93155409Y-103391915D01*
X93121431Y-103381607D01*
X93090110Y-103364866D01*
X93062661Y-103342339D01*
X93040134Y-103314890D01*
X93023393Y-103283569D01*
X93013085Y-103249591D01*
X93009000Y-103208110D01*
X93009000Y-102531890D01*
X93013085Y-102490409D01*
X93023393Y-102456431D01*
X93040134Y-102425110D01*
X93062661Y-102397661D01*
X93090110Y-102375134D01*
X93121431Y-102358393D01*
X93155409Y-102348085D01*
X93196890Y-102344000D01*
X93798110Y-102344000D01*
X93839591Y-102348085D01*
X93839591Y-102348085D01*
G37*
G36*
X90029591Y-102348085D02*
G01*
X90063569Y-102358393D01*
X90094890Y-102375134D01*
X90122339Y-102397661D01*
X90144866Y-102425110D01*
X90161607Y-102456431D01*
X90171915Y-102490409D01*
X90176000Y-102531890D01*
X90176000Y-103208110D01*
X90171915Y-103249591D01*
X90161607Y-103283569D01*
X90144866Y-103314890D01*
X90122339Y-103342339D01*
X90094890Y-103364866D01*
X90063569Y-103381607D01*
X90029591Y-103391915D01*
X89988110Y-103396000D01*
X89386890Y-103396000D01*
X89345409Y-103391915D01*
X89311431Y-103381607D01*
X89280110Y-103364866D01*
X89252661Y-103342339D01*
X89230134Y-103314890D01*
X89213393Y-103283569D01*
X89203085Y-103249591D01*
X89199000Y-103208110D01*
X89199000Y-102531890D01*
X89203085Y-102490409D01*
X89213393Y-102456431D01*
X89230134Y-102425110D01*
X89252661Y-102397661D01*
X89280110Y-102375134D01*
X89311431Y-102358393D01*
X89345409Y-102348085D01*
X89386890Y-102344000D01*
X89988110Y-102344000D01*
X90029591Y-102348085D01*
X90029591Y-102348085D01*
G37*
G36*
X84126416Y-100589879D02*
G01*
X84317592Y-100669067D01*
X84317594Y-100669068D01*
X84371699Y-100705220D01*
X84489648Y-100784031D01*
X84635969Y-100930352D01*
X84750933Y-101102408D01*
X84830121Y-101293584D01*
X84870490Y-101496534D01*
X84870490Y-101703466D01*
X84830121Y-101906416D01*
X84750933Y-102097592D01*
X84750932Y-102097594D01*
X84635969Y-102269648D01*
X84489648Y-102415969D01*
X84317594Y-102530932D01*
X84317593Y-102530933D01*
X84317592Y-102530933D01*
X84126416Y-102610121D01*
X83923466Y-102650490D01*
X83716534Y-102650490D01*
X83513584Y-102610121D01*
X83322408Y-102530933D01*
X83322407Y-102530933D01*
X83322406Y-102530932D01*
X83150352Y-102415969D01*
X83004031Y-102269648D01*
X82889068Y-102097594D01*
X82889067Y-102097592D01*
X82809879Y-101906416D01*
X82769510Y-101703466D01*
X82769510Y-101496534D01*
X82809879Y-101293584D01*
X82889067Y-101102408D01*
X83004031Y-100930352D01*
X83150352Y-100784031D01*
X83268301Y-100705220D01*
X83322406Y-100669068D01*
X83322408Y-100669067D01*
X83513584Y-100589879D01*
X83716534Y-100549510D01*
X83923466Y-100549510D01*
X84126416Y-100589879D01*
X84126416Y-100589879D01*
G37*
G36*
X101631000Y-102256000D02*
G01*
X99029000Y-102256000D01*
X99029000Y-101104000D01*
X101631000Y-101104000D01*
X101631000Y-102256000D01*
X101631000Y-102256000D01*
G37*
G36*
X106711000Y-102256000D02*
G01*
X104109000Y-102256000D01*
X104109000Y-101104000D01*
X106711000Y-101104000D01*
X106711000Y-102256000D01*
X106711000Y-102256000D01*
G37*
G36*
X110044591Y-99808085D02*
G01*
X110078569Y-99818393D01*
X110109890Y-99835134D01*
X110137339Y-99857661D01*
X110159866Y-99885110D01*
X110176607Y-99916431D01*
X110186915Y-99950409D01*
X110191000Y-99991890D01*
X110191000Y-100668110D01*
X110186915Y-100709591D01*
X110176607Y-100743569D01*
X110159866Y-100774890D01*
X110137339Y-100802339D01*
X110109890Y-100824866D01*
X110078569Y-100841607D01*
X110044591Y-100851915D01*
X110003110Y-100856000D01*
X109401890Y-100856000D01*
X109360409Y-100851915D01*
X109326431Y-100841607D01*
X109295110Y-100824866D01*
X109267661Y-100802339D01*
X109245134Y-100774890D01*
X109228393Y-100743569D01*
X109218085Y-100709591D01*
X109214000Y-100668110D01*
X109214000Y-99991890D01*
X109218085Y-99950409D01*
X109228393Y-99916431D01*
X109245134Y-99885110D01*
X109267661Y-99857661D01*
X109295110Y-99835134D01*
X109326431Y-99818393D01*
X109360409Y-99808085D01*
X109401890Y-99804000D01*
X110003110Y-99804000D01*
X110044591Y-99808085D01*
X110044591Y-99808085D01*
G37*
G36*
X111619591Y-99808085D02*
G01*
X111653569Y-99818393D01*
X111684890Y-99835134D01*
X111712339Y-99857661D01*
X111734866Y-99885110D01*
X111751607Y-99916431D01*
X111761915Y-99950409D01*
X111766000Y-99991890D01*
X111766000Y-100668110D01*
X111761915Y-100709591D01*
X111751607Y-100743569D01*
X111734866Y-100774890D01*
X111712339Y-100802339D01*
X111684890Y-100824866D01*
X111653569Y-100841607D01*
X111619591Y-100851915D01*
X111578110Y-100856000D01*
X110976890Y-100856000D01*
X110935409Y-100851915D01*
X110901431Y-100841607D01*
X110870110Y-100824866D01*
X110842661Y-100802339D01*
X110820134Y-100774890D01*
X110803393Y-100743569D01*
X110793085Y-100709591D01*
X110789000Y-100668110D01*
X110789000Y-99991890D01*
X110793085Y-99950409D01*
X110803393Y-99916431D01*
X110820134Y-99885110D01*
X110842661Y-99857661D01*
X110870110Y-99835134D01*
X110901431Y-99818393D01*
X110935409Y-99808085D01*
X110976890Y-99804000D01*
X111578110Y-99804000D01*
X111619591Y-99808085D01*
X111619591Y-99808085D01*
G37*
G36*
X101631000Y-99556000D02*
G01*
X99029000Y-99556000D01*
X99029000Y-98404000D01*
X101631000Y-98404000D01*
X101631000Y-99556000D01*
X101631000Y-99556000D01*
G37*
G36*
X106711000Y-99556000D02*
G01*
X104109000Y-99556000D01*
X104109000Y-98404000D01*
X106711000Y-98404000D01*
X106711000Y-99556000D01*
X106711000Y-99556000D01*
G37*
G36*
X84870490Y-98840490D02*
G01*
X82769510Y-98840490D01*
X82769510Y-96739510D01*
X84870490Y-96739510D01*
X84870490Y-98840490D01*
X84870490Y-98840490D01*
G37*
G36*
X88439499Y-97268445D02*
G01*
X88476995Y-97279820D01*
X88511554Y-97298292D01*
X88541847Y-97323153D01*
X88566708Y-97353446D01*
X88585180Y-97388005D01*
X88596555Y-97425501D01*
X88601000Y-97470638D01*
X88601000Y-98109362D01*
X88596555Y-98154499D01*
X88585180Y-98191995D01*
X88566708Y-98226554D01*
X88541847Y-98256847D01*
X88511554Y-98281708D01*
X88476995Y-98300180D01*
X88439499Y-98311555D01*
X88394362Y-98316000D01*
X87655638Y-98316000D01*
X87610501Y-98311555D01*
X87573005Y-98300180D01*
X87538446Y-98281708D01*
X87508153Y-98256847D01*
X87483292Y-98226554D01*
X87464820Y-98191995D01*
X87453445Y-98154499D01*
X87449000Y-98109362D01*
X87449000Y-97470638D01*
X87453445Y-97425501D01*
X87464820Y-97388005D01*
X87483292Y-97353446D01*
X87508153Y-97323153D01*
X87538446Y-97298292D01*
X87573005Y-97279820D01*
X87610501Y-97268445D01*
X87655638Y-97264000D01*
X88394362Y-97264000D01*
X88439499Y-97268445D01*
X88439499Y-97268445D01*
G37*
G36*
X93999499Y-97268445D02*
G01*
X94036995Y-97279820D01*
X94071554Y-97298292D01*
X94101847Y-97323153D01*
X94126708Y-97353446D01*
X94145180Y-97388005D01*
X94156555Y-97425501D01*
X94161000Y-97470638D01*
X94161000Y-98109362D01*
X94156555Y-98154499D01*
X94145180Y-98191995D01*
X94126708Y-98226554D01*
X94101847Y-98256847D01*
X94071554Y-98281708D01*
X94036995Y-98300180D01*
X93999499Y-98311555D01*
X93954362Y-98316000D01*
X93215638Y-98316000D01*
X93170501Y-98311555D01*
X93133005Y-98300180D01*
X93098446Y-98281708D01*
X93068153Y-98256847D01*
X93043292Y-98226554D01*
X93024820Y-98191995D01*
X93013445Y-98154499D01*
X93009000Y-98109362D01*
X93009000Y-97470638D01*
X93013445Y-97425501D01*
X93024820Y-97388005D01*
X93043292Y-97353446D01*
X93068153Y-97323153D01*
X93098446Y-97298292D01*
X93133005Y-97279820D01*
X93170501Y-97268445D01*
X93215638Y-97264000D01*
X93954362Y-97264000D01*
X93999499Y-97268445D01*
X93999499Y-97268445D01*
G37*
G36*
X96059499Y-97268445D02*
G01*
X96096995Y-97279820D01*
X96131554Y-97298292D01*
X96161847Y-97323153D01*
X96186708Y-97353446D01*
X96205180Y-97388005D01*
X96216555Y-97425501D01*
X96221000Y-97470638D01*
X96221000Y-98109362D01*
X96216555Y-98154499D01*
X96205180Y-98191995D01*
X96186708Y-98226554D01*
X96161847Y-98256847D01*
X96131554Y-98281708D01*
X96096995Y-98300180D01*
X96059499Y-98311555D01*
X96014362Y-98316000D01*
X95275638Y-98316000D01*
X95230501Y-98311555D01*
X95193005Y-98300180D01*
X95158446Y-98281708D01*
X95128153Y-98256847D01*
X95103292Y-98226554D01*
X95084820Y-98191995D01*
X95073445Y-98154499D01*
X95069000Y-98109362D01*
X95069000Y-97470638D01*
X95073445Y-97425501D01*
X95084820Y-97388005D01*
X95103292Y-97353446D01*
X95128153Y-97323153D01*
X95158446Y-97298292D01*
X95193005Y-97279820D01*
X95230501Y-97268445D01*
X95275638Y-97264000D01*
X96014362Y-97264000D01*
X96059499Y-97268445D01*
X96059499Y-97268445D01*
G37*
G36*
X90189499Y-97268445D02*
G01*
X90226995Y-97279820D01*
X90261554Y-97298292D01*
X90291847Y-97323153D01*
X90316708Y-97353446D01*
X90335180Y-97388005D01*
X90346555Y-97425501D01*
X90351000Y-97470638D01*
X90351000Y-98109362D01*
X90346555Y-98154499D01*
X90335180Y-98191995D01*
X90316708Y-98226554D01*
X90291847Y-98256847D01*
X90261554Y-98281708D01*
X90226995Y-98300180D01*
X90189499Y-98311555D01*
X90144362Y-98316000D01*
X89405638Y-98316000D01*
X89360501Y-98311555D01*
X89323005Y-98300180D01*
X89288446Y-98281708D01*
X89258153Y-98256847D01*
X89233292Y-98226554D01*
X89214820Y-98191995D01*
X89203445Y-98154499D01*
X89199000Y-98109362D01*
X89199000Y-97470638D01*
X89203445Y-97425501D01*
X89214820Y-97388005D01*
X89233292Y-97353446D01*
X89258153Y-97323153D01*
X89288446Y-97298292D01*
X89323005Y-97279820D01*
X89360501Y-97268445D01*
X89405638Y-97264000D01*
X90144362Y-97264000D01*
X90189499Y-97268445D01*
X90189499Y-97268445D01*
G37*
G36*
X92249499Y-97268445D02*
G01*
X92286995Y-97279820D01*
X92321554Y-97298292D01*
X92351847Y-97323153D01*
X92376708Y-97353446D01*
X92395180Y-97388005D01*
X92406555Y-97425501D01*
X92411000Y-97470638D01*
X92411000Y-98109362D01*
X92406555Y-98154499D01*
X92395180Y-98191995D01*
X92376708Y-98226554D01*
X92351847Y-98256847D01*
X92321554Y-98281708D01*
X92286995Y-98300180D01*
X92249499Y-98311555D01*
X92204362Y-98316000D01*
X91465638Y-98316000D01*
X91420501Y-98311555D01*
X91383005Y-98300180D01*
X91348446Y-98281708D01*
X91318153Y-98256847D01*
X91293292Y-98226554D01*
X91274820Y-98191995D01*
X91263445Y-98154499D01*
X91259000Y-98109362D01*
X91259000Y-97470638D01*
X91263445Y-97425501D01*
X91274820Y-97388005D01*
X91293292Y-97353446D01*
X91318153Y-97323153D01*
X91348446Y-97298292D01*
X91383005Y-97279820D01*
X91420501Y-97268445D01*
X91465638Y-97264000D01*
X92204362Y-97264000D01*
X92249499Y-97268445D01*
X92249499Y-97268445D01*
G37*
G36*
X97809499Y-97268445D02*
G01*
X97846995Y-97279820D01*
X97881554Y-97298292D01*
X97911847Y-97323153D01*
X97936708Y-97353446D01*
X97955180Y-97388005D01*
X97966555Y-97425501D01*
X97971000Y-97470638D01*
X97971000Y-98109362D01*
X97966555Y-98154499D01*
X97955180Y-98191995D01*
X97936708Y-98226554D01*
X97911847Y-98256847D01*
X97881554Y-98281708D01*
X97846995Y-98300180D01*
X97809499Y-98311555D01*
X97764362Y-98316000D01*
X97025638Y-98316000D01*
X96980501Y-98311555D01*
X96943005Y-98300180D01*
X96908446Y-98281708D01*
X96878153Y-98256847D01*
X96853292Y-98226554D01*
X96834820Y-98191995D01*
X96823445Y-98154499D01*
X96819000Y-98109362D01*
X96819000Y-97470638D01*
X96823445Y-97425501D01*
X96834820Y-97388005D01*
X96853292Y-97353446D01*
X96878153Y-97323153D01*
X96908446Y-97298292D01*
X96943005Y-97279820D01*
X96980501Y-97268445D01*
X97025638Y-97264000D01*
X97764362Y-97264000D01*
X97809499Y-97268445D01*
X97809499Y-97268445D01*
G37*
G36*
X115350490Y-97570490D02*
G01*
X113249510Y-97570490D01*
X113249510Y-95469510D01*
X115350490Y-95469510D01*
X115350490Y-97570490D01*
X115350490Y-97570490D01*
G37*
G36*
X105531000Y-95901000D02*
G01*
X104529000Y-95901000D01*
X104529000Y-94599000D01*
X105531000Y-94599000D01*
X105531000Y-95901000D01*
X105531000Y-95901000D01*
G37*
G36*
X108831000Y-95901000D02*
G01*
X107829000Y-95901000D01*
X107829000Y-94599000D01*
X108831000Y-94599000D01*
X108831000Y-95901000D01*
X108831000Y-95901000D01*
G37*
G36*
X101619499Y-94728445D02*
G01*
X101656995Y-94739820D01*
X101691554Y-94758292D01*
X101721847Y-94783153D01*
X101746708Y-94813446D01*
X101765180Y-94848005D01*
X101776555Y-94885501D01*
X101781000Y-94930638D01*
X101781000Y-95569362D01*
X101776555Y-95614499D01*
X101765180Y-95651995D01*
X101746708Y-95686554D01*
X101721847Y-95716847D01*
X101691554Y-95741708D01*
X101656995Y-95760180D01*
X101619499Y-95771555D01*
X101574362Y-95776000D01*
X100835638Y-95776000D01*
X100790501Y-95771555D01*
X100753005Y-95760180D01*
X100718446Y-95741708D01*
X100688153Y-95716847D01*
X100663292Y-95686554D01*
X100644820Y-95651995D01*
X100633445Y-95614499D01*
X100629000Y-95569362D01*
X100629000Y-94930638D01*
X100633445Y-94885501D01*
X100644820Y-94848005D01*
X100663292Y-94813446D01*
X100688153Y-94783153D01*
X100718446Y-94758292D01*
X100753005Y-94739820D01*
X100790501Y-94728445D01*
X100835638Y-94724000D01*
X101574362Y-94724000D01*
X101619499Y-94728445D01*
X101619499Y-94728445D01*
G37*
G36*
X99869499Y-94728445D02*
G01*
X99906995Y-94739820D01*
X99941554Y-94758292D01*
X99971847Y-94783153D01*
X99996708Y-94813446D01*
X100015180Y-94848005D01*
X100026555Y-94885501D01*
X100031000Y-94930638D01*
X100031000Y-95569362D01*
X100026555Y-95614499D01*
X100015180Y-95651995D01*
X99996708Y-95686554D01*
X99971847Y-95716847D01*
X99941554Y-95741708D01*
X99906995Y-95760180D01*
X99869499Y-95771555D01*
X99824362Y-95776000D01*
X99085638Y-95776000D01*
X99040501Y-95771555D01*
X99003005Y-95760180D01*
X98968446Y-95741708D01*
X98938153Y-95716847D01*
X98913292Y-95686554D01*
X98894820Y-95651995D01*
X98883445Y-95614499D01*
X98879000Y-95569362D01*
X98879000Y-94930638D01*
X98883445Y-94885501D01*
X98894820Y-94848005D01*
X98913292Y-94813446D01*
X98938153Y-94783153D01*
X98968446Y-94758292D01*
X99003005Y-94739820D01*
X99040501Y-94728445D01*
X99085638Y-94724000D01*
X99824362Y-94724000D01*
X99869499Y-94728445D01*
X99869499Y-94728445D01*
G37*
G36*
X89886000Y-95121000D02*
G01*
X89184000Y-95121000D01*
X89184000Y-93119000D01*
X89886000Y-93119000D01*
X89886000Y-95121000D01*
X89886000Y-95121000D01*
G37*
G36*
X91156000Y-95121000D02*
G01*
X90454000Y-95121000D01*
X90454000Y-93119000D01*
X91156000Y-93119000D01*
X91156000Y-95121000D01*
X91156000Y-95121000D01*
G37*
G36*
X92426000Y-95121000D02*
G01*
X91724000Y-95121000D01*
X91724000Y-93119000D01*
X92426000Y-93119000D01*
X92426000Y-95121000D01*
X92426000Y-95121000D01*
G37*
G36*
X93696000Y-95121000D02*
G01*
X92994000Y-95121000D01*
X92994000Y-93119000D01*
X93696000Y-93119000D01*
X93696000Y-95121000D01*
X93696000Y-95121000D01*
G37*
G36*
X114606416Y-91699879D02*
G01*
X114797592Y-91779067D01*
X114797594Y-91779068D01*
X114943492Y-91876554D01*
X114969648Y-91894031D01*
X115115969Y-92040352D01*
X115230933Y-92212408D01*
X115310121Y-92403584D01*
X115350490Y-92606534D01*
X115350490Y-92813466D01*
X115310121Y-93016416D01*
X115267629Y-93119000D01*
X115230932Y-93207594D01*
X115115969Y-93379648D01*
X114969648Y-93525969D01*
X114797594Y-93640932D01*
X114797593Y-93640933D01*
X114797592Y-93640933D01*
X114606416Y-93720121D01*
X114403466Y-93760490D01*
X114196534Y-93760490D01*
X113993584Y-93720121D01*
X113802408Y-93640933D01*
X113802407Y-93640933D01*
X113802406Y-93640932D01*
X113630352Y-93525969D01*
X113484031Y-93379648D01*
X113369068Y-93207594D01*
X113332371Y-93119000D01*
X113289879Y-93016416D01*
X113249510Y-92813466D01*
X113249510Y-92606534D01*
X113289879Y-92403584D01*
X113369067Y-92212408D01*
X113484031Y-92040352D01*
X113630352Y-91894031D01*
X113656508Y-91876554D01*
X113802406Y-91779068D01*
X113802408Y-91779067D01*
X113993584Y-91699879D01*
X114196534Y-91659510D01*
X114403466Y-91659510D01*
X114606416Y-91699879D01*
X114606416Y-91699879D01*
G37*
G36*
X84126416Y-90429879D02*
G01*
X84317592Y-90509067D01*
X84317594Y-90509068D01*
X84489648Y-90624031D01*
X84635969Y-90770352D01*
X84745329Y-90934020D01*
X84750933Y-90942408D01*
X84830121Y-91133584D01*
X84870490Y-91336534D01*
X84870490Y-91543466D01*
X84830121Y-91746416D01*
X84763668Y-91906847D01*
X84750932Y-91937594D01*
X84635969Y-92109648D01*
X84489648Y-92255969D01*
X84317594Y-92370932D01*
X84317593Y-92370933D01*
X84317592Y-92370933D01*
X84126416Y-92450121D01*
X83923466Y-92490490D01*
X83716534Y-92490490D01*
X83513584Y-92450121D01*
X83322408Y-92370933D01*
X83322407Y-92370933D01*
X83322406Y-92370932D01*
X83150352Y-92255969D01*
X83004031Y-92109648D01*
X82889068Y-91937594D01*
X82876332Y-91906847D01*
X82809879Y-91746416D01*
X82769510Y-91543466D01*
X82769510Y-91336534D01*
X82809879Y-91133584D01*
X82889067Y-90942408D01*
X82894672Y-90934020D01*
X83004031Y-90770352D01*
X83150352Y-90624031D01*
X83322406Y-90509068D01*
X83322408Y-90509067D01*
X83513584Y-90429879D01*
X83716534Y-90389510D01*
X83923466Y-90389510D01*
X84126416Y-90429879D01*
X84126416Y-90429879D01*
G37*
G36*
X97329499Y-90918445D02*
G01*
X97366995Y-90929820D01*
X97401554Y-90948292D01*
X97431847Y-90973153D01*
X97456708Y-91003446D01*
X97475180Y-91038005D01*
X97486555Y-91075501D01*
X97491000Y-91120638D01*
X97491000Y-91759362D01*
X97486555Y-91804499D01*
X97475180Y-91841995D01*
X97456708Y-91876554D01*
X97431847Y-91906847D01*
X97401554Y-91931708D01*
X97366995Y-91950180D01*
X97329499Y-91961555D01*
X97284362Y-91966000D01*
X96545638Y-91966000D01*
X96500501Y-91961555D01*
X96463005Y-91950180D01*
X96428446Y-91931708D01*
X96398153Y-91906847D01*
X96373292Y-91876554D01*
X96354820Y-91841995D01*
X96343445Y-91804499D01*
X96339000Y-91759362D01*
X96339000Y-91120638D01*
X96343445Y-91075501D01*
X96354820Y-91038005D01*
X96373292Y-91003446D01*
X96398153Y-90973153D01*
X96428446Y-90948292D01*
X96463005Y-90929820D01*
X96500501Y-90918445D01*
X96545638Y-90914000D01*
X97284362Y-90914000D01*
X97329499Y-90918445D01*
X97329499Y-90918445D01*
G37*
G36*
X99079499Y-90918445D02*
G01*
X99116995Y-90929820D01*
X99151554Y-90948292D01*
X99181847Y-90973153D01*
X99206708Y-91003446D01*
X99225180Y-91038005D01*
X99236555Y-91075501D01*
X99241000Y-91120638D01*
X99241000Y-91759362D01*
X99236555Y-91804499D01*
X99225180Y-91841995D01*
X99206708Y-91876554D01*
X99181847Y-91906847D01*
X99151554Y-91931708D01*
X99116995Y-91950180D01*
X99079499Y-91961555D01*
X99034362Y-91966000D01*
X98295638Y-91966000D01*
X98250501Y-91961555D01*
X98213005Y-91950180D01*
X98178446Y-91931708D01*
X98148153Y-91906847D01*
X98123292Y-91876554D01*
X98104820Y-91841995D01*
X98093445Y-91804499D01*
X98089000Y-91759362D01*
X98089000Y-91120638D01*
X98093445Y-91075501D01*
X98104820Y-91038005D01*
X98123292Y-91003446D01*
X98148153Y-90973153D01*
X98178446Y-90948292D01*
X98213005Y-90929820D01*
X98250501Y-90918445D01*
X98295638Y-90914000D01*
X99034362Y-90914000D01*
X99079499Y-90918445D01*
X99079499Y-90918445D01*
G37*
G36*
X107831000Y-91631000D02*
G01*
X105529000Y-91631000D01*
X105529000Y-90029000D01*
X107831000Y-90029000D01*
X107831000Y-91631000D01*
X107831000Y-91631000D01*
G37*
G36*
X84870490Y-88680490D02*
G01*
X82769510Y-88680490D01*
X82769510Y-86579510D01*
X84870490Y-86579510D01*
X84870490Y-88680490D01*
X84870490Y-88680490D01*
G37*
G36*
X99091000Y-88286000D02*
G01*
X96489000Y-88286000D01*
X96489000Y-87134000D01*
X99091000Y-87134000D01*
X99091000Y-88286000D01*
X99091000Y-88286000D01*
G37*
G36*
X93696000Y-87221000D02*
G01*
X92994000Y-87221000D01*
X92994000Y-85219000D01*
X93696000Y-85219000D01*
X93696000Y-87221000D01*
X93696000Y-87221000D01*
G37*
G36*
X92426000Y-87221000D02*
G01*
X91724000Y-87221000D01*
X91724000Y-85219000D01*
X92426000Y-85219000D01*
X92426000Y-87221000D01*
X92426000Y-87221000D01*
G37*
G36*
X91156000Y-87221000D02*
G01*
X90454000Y-87221000D01*
X90454000Y-85219000D01*
X91156000Y-85219000D01*
X91156000Y-87221000D01*
X91156000Y-87221000D01*
G37*
G36*
X89886000Y-87221000D02*
G01*
X89184000Y-87221000D01*
X89184000Y-85219000D01*
X89886000Y-85219000D01*
X89886000Y-87221000D01*
X89886000Y-87221000D01*
G37*
G36*
X97191000Y-85586000D02*
G01*
X96489000Y-85586000D01*
X96489000Y-84434000D01*
X97191000Y-84434000D01*
X97191000Y-85586000D01*
X97191000Y-85586000D01*
G37*
G36*
X99091000Y-85586000D02*
G01*
X98389000Y-85586000D01*
X98389000Y-84434000D01*
X99091000Y-84434000D01*
X99091000Y-85586000D01*
X99091000Y-85586000D01*
G37*
G36*
X107831000Y-85231000D02*
G01*
X105529000Y-85231000D01*
X105529000Y-83629000D01*
X107831000Y-83629000D01*
X107831000Y-85231000D01*
X107831000Y-85231000D01*
G37*
M02*
