G04 #@! TF.GenerationSoftware,KiCad,Pcbnew,(5.1.2)-1*
G04 #@! TF.CreationDate,2019-09-27T08:17:11+00:00*
G04 #@! TF.ProjectId,lilikitPCB,6c696c69-6b69-4745-9043-422e6b696361,V01*
G04 #@! TF.SameCoordinates,Original*
G04 #@! TF.FileFunction,Soldermask,Bot*
G04 #@! TF.FilePolarity,Negative*
%FSLAX46Y46*%
G04 Gerber Fmt 4.6, Leading zero omitted, Abs format (unit mm)*
G04 Created by KiCad (PCBNEW (5.1.2)-1) date 2019-09-27 08:17:11*
%MOMM*%
%LPD*%
G04 APERTURE LIST*
%ADD10C,0.100000*%
G04 APERTURE END LIST*
D10*
G36*
X105190490Y-109000490D02*
G01*
X103089510Y-109000490D01*
X103089510Y-106899510D01*
X105190490Y-106899510D01*
X105190490Y-109000490D01*
X105190490Y-109000490D01*
G37*
G36*
X100636416Y-106939879D02*
G01*
X100827592Y-107019067D01*
X100827594Y-107019068D01*
X100999648Y-107134031D01*
X101145969Y-107280352D01*
X101260933Y-107452408D01*
X101340121Y-107643584D01*
X101380490Y-107846534D01*
X101380490Y-108053466D01*
X101340121Y-108256416D01*
X101260933Y-108447592D01*
X101260932Y-108447594D01*
X101145969Y-108619648D01*
X100999648Y-108765969D01*
X100827594Y-108880932D01*
X100827593Y-108880933D01*
X100827592Y-108880933D01*
X100636416Y-108960121D01*
X100433466Y-109000490D01*
X100226534Y-109000490D01*
X100023584Y-108960121D01*
X99832408Y-108880933D01*
X99832407Y-108880933D01*
X99832406Y-108880932D01*
X99660352Y-108765969D01*
X99514031Y-108619648D01*
X99399068Y-108447594D01*
X99399067Y-108447592D01*
X99319879Y-108256416D01*
X99279510Y-108053466D01*
X99279510Y-107846534D01*
X99319879Y-107643584D01*
X99399067Y-107452408D01*
X99514031Y-107280352D01*
X99660352Y-107134031D01*
X99832406Y-107019068D01*
X99832408Y-107019067D01*
X100023584Y-106939879D01*
X100226534Y-106899510D01*
X100433466Y-106899510D01*
X100636416Y-106939879D01*
X100636416Y-106939879D01*
G37*
G36*
X84126416Y-100589879D02*
G01*
X84317592Y-100669067D01*
X84317594Y-100669068D01*
X84489648Y-100784031D01*
X84635969Y-100930352D01*
X84750933Y-101102408D01*
X84830121Y-101293584D01*
X84870490Y-101496534D01*
X84870490Y-101703466D01*
X84830121Y-101906416D01*
X84750933Y-102097592D01*
X84750932Y-102097594D01*
X84635969Y-102269648D01*
X84489648Y-102415969D01*
X84317594Y-102530932D01*
X84317593Y-102530933D01*
X84317592Y-102530933D01*
X84126416Y-102610121D01*
X83923466Y-102650490D01*
X83716534Y-102650490D01*
X83513584Y-102610121D01*
X83322408Y-102530933D01*
X83322407Y-102530933D01*
X83322406Y-102530932D01*
X83150352Y-102415969D01*
X83004031Y-102269648D01*
X82889068Y-102097594D01*
X82889067Y-102097592D01*
X82809879Y-101906416D01*
X82769510Y-101703466D01*
X82769510Y-101496534D01*
X82809879Y-101293584D01*
X82889067Y-101102408D01*
X83004031Y-100930352D01*
X83150352Y-100784031D01*
X83322406Y-100669068D01*
X83322408Y-100669067D01*
X83513584Y-100589879D01*
X83716534Y-100549510D01*
X83923466Y-100549510D01*
X84126416Y-100589879D01*
X84126416Y-100589879D01*
G37*
G36*
X84870490Y-98840490D02*
G01*
X82769510Y-98840490D01*
X82769510Y-96739510D01*
X84870490Y-96739510D01*
X84870490Y-98840490D01*
X84870490Y-98840490D01*
G37*
G36*
X115350490Y-97570490D02*
G01*
X113249510Y-97570490D01*
X113249510Y-95469510D01*
X115350490Y-95469510D01*
X115350490Y-97570490D01*
X115350490Y-97570490D01*
G37*
G36*
X114606416Y-91699879D02*
G01*
X114797592Y-91779067D01*
X114797594Y-91779068D01*
X114969648Y-91894031D01*
X115115969Y-92040352D01*
X115230933Y-92212408D01*
X115310121Y-92403584D01*
X115350490Y-92606534D01*
X115350490Y-92813466D01*
X115310121Y-93016416D01*
X115230933Y-93207592D01*
X115230932Y-93207594D01*
X115115969Y-93379648D01*
X114969648Y-93525969D01*
X114797594Y-93640932D01*
X114797593Y-93640933D01*
X114797592Y-93640933D01*
X114606416Y-93720121D01*
X114403466Y-93760490D01*
X114196534Y-93760490D01*
X113993584Y-93720121D01*
X113802408Y-93640933D01*
X113802407Y-93640933D01*
X113802406Y-93640932D01*
X113630352Y-93525969D01*
X113484031Y-93379648D01*
X113369068Y-93207594D01*
X113369067Y-93207592D01*
X113289879Y-93016416D01*
X113249510Y-92813466D01*
X113249510Y-92606534D01*
X113289879Y-92403584D01*
X113369067Y-92212408D01*
X113484031Y-92040352D01*
X113630352Y-91894031D01*
X113802406Y-91779068D01*
X113802408Y-91779067D01*
X113993584Y-91699879D01*
X114196534Y-91659510D01*
X114403466Y-91659510D01*
X114606416Y-91699879D01*
X114606416Y-91699879D01*
G37*
G36*
X84126416Y-90429879D02*
G01*
X84317592Y-90509067D01*
X84317594Y-90509068D01*
X84489648Y-90624031D01*
X84635969Y-90770352D01*
X84750933Y-90942408D01*
X84830121Y-91133584D01*
X84870490Y-91336534D01*
X84870490Y-91543466D01*
X84830121Y-91746416D01*
X84750933Y-91937592D01*
X84750932Y-91937594D01*
X84635969Y-92109648D01*
X84489648Y-92255969D01*
X84317594Y-92370932D01*
X84317593Y-92370933D01*
X84317592Y-92370933D01*
X84126416Y-92450121D01*
X83923466Y-92490490D01*
X83716534Y-92490490D01*
X83513584Y-92450121D01*
X83322408Y-92370933D01*
X83322407Y-92370933D01*
X83322406Y-92370932D01*
X83150352Y-92255969D01*
X83004031Y-92109648D01*
X82889068Y-91937594D01*
X82889067Y-91937592D01*
X82809879Y-91746416D01*
X82769510Y-91543466D01*
X82769510Y-91336534D01*
X82809879Y-91133584D01*
X82889067Y-90942408D01*
X83004031Y-90770352D01*
X83150352Y-90624031D01*
X83322406Y-90509068D01*
X83322408Y-90509067D01*
X83513584Y-90429879D01*
X83716534Y-90389510D01*
X83923466Y-90389510D01*
X84126416Y-90429879D01*
X84126416Y-90429879D01*
G37*
G36*
X84870490Y-88680490D02*
G01*
X82769510Y-88680490D01*
X82769510Y-86579510D01*
X84870490Y-86579510D01*
X84870490Y-88680490D01*
X84870490Y-88680490D01*
G37*
M02*
