M48
; DRILL file {KiCad (5.1.2)-1} date 27/09/2019 08:17:54
; FORMAT={-:-/ absolute / inch / decimal}
; #@! TF.CreationDate,2019-09-27T08:17:54+00:00
; #@! TF.GenerationSoftware,Kicad,Pcbnew,(5.1.2)-1
; #@! TF.FileFunction,Plated,1,2,PTH
FMAT,2
INCH
T1C0.0157
T2C0.0315
%
G90
G05
T1
X3.4Y-3.5
X3.4Y-3.95
X3.55Y-3.5
X3.55Y-3.6
X3.55Y-3.6
X3.55Y-3.9
X3.639Y-3.489
X3.65Y-3.6
X3.7Y-3.25
X3.7Y-3.6
X3.7Y-3.95
X3.8Y-3.55
X3.8Y-3.7
X3.8Y-4.0
X3.85Y-3.65
X3.863Y-3.9
X3.869Y-3.7
X3.9Y-4.05
X3.95Y-3.35
X3.95Y-3.6
X4.0Y-3.55
X4.05Y-3.9108
X4.05Y-3.9108
X4.1Y-3.65
X4.1Y-3.8
X4.25Y-3.95
T2
X3.3Y-3.45
X3.3Y-3.6
X3.95Y-4.25
X4.1Y-4.25
X3.3Y-3.85
X3.3Y-4.0
X4.5Y-3.65
X4.5Y-3.8
T0
M30
